<svg xmlns="http://www.w3.org/2000/svg" viewBox="0 0 400 300" width="406" height="306" class="illustration styles_illustrationTablet__1DWOa"><g id="_369_chef_flatline" data-name="#369_chef_flatline"><rect x="98.73" y="162.51" width="214.55" height="11.84" fill="#fff"></rect><path d="M313.27,174.85H98.73a.5.5,0,0,1-.5-.5V162.51a.5.5,0,0,1,.5-.5H313.27a.5.5,0,0,1,.5.5v11.84A.5.5,0,0,1,313.27,174.85Zm-214-1H312.77V163H99.23Z" fill="#d1d3d4"></path><rect x="104.86" y="174.35" width="202.29" height="73.98" fill="#fff"></rect><path d="M307.14,248.83H104.86a.5.5,0,0,1-.5-.5v-74a.5.5,0,0,1,.5-.5H307.14a.5.5,0,0,1,.5.5v74A.5.5,0,0,1,307.14,248.83Zm-201.78-1H306.64v-73H105.36Z" fill="#d1d3d4"></path><path d="M176,241H116a.51.51,0,0,1-.5-.5V182.19a.5.5,0,0,1,.5-.5h60a.5.5,0,0,1,.5.5V240.5A.5.5,0,0,1,176,241Zm-59.47-1h59V182.69h-59Z" fill="#d1d3d4"></path><path d="M236,241H176a.51.51,0,0,1-.5-.5V182.19a.5.5,0,0,1,.5-.5h60a.5.5,0,0,1,.5.5V240.5A.51.51,0,0,1,236,241Zm-59.48-1h59V182.69h-59Z" fill="#d1d3d4"></path><path d="M296,241H236a.5.5,0,0,1-.5-.5V182.19a.5.5,0,0,1,.5-.5h60a.5.5,0,0,1,.5.5V240.5A.51.51,0,0,1,296,241Zm-59.47-1h59V182.69h-59Z" fill="#d1d3d4"></path><path d="M183.17,52.34a2.87,2.87,0,0,0-2.16-1.1,1.52,1.52,0,0,0-1,.38,2.24,2.24,0,0,0-.53,1.25,9.06,9.06,0,0,0,.1,3.74,5.83,5.83,0,0,0,2,3.12c1.09.84,2.58,1,3.14-.49A6.75,6.75,0,0,0,183.17,52.34Z" fill="#fff"></path><path d="M183.19,60.87a3.26,3.26,0,0,1-1.95-.74,6.31,6.31,0,0,1-2.16-3.4,9.38,9.38,0,0,1-.11-3.94,2.71,2.71,0,0,1,.67-1.53,2,2,0,0,1,1.36-.52A3.47,3.47,0,0,1,183.55,52h0a7.28,7.28,0,0,1,1.6,7.41,2.09,2.09,0,0,1-1.39,1.37A2.12,2.12,0,0,1,183.19,60.87Zm-2.14-9.13h0a1.12,1.12,0,0,0-.69.24,1.8,1.8,0,0,0-.37,1,8.28,8.28,0,0,0,.09,3.53,5.32,5.32,0,0,0,1.8,2.86,2,2,0,0,0,1.64.49,1.17,1.17,0,0,0,.73-.77,6.33,6.33,0,0,0-1.43-6.4A2.4,2.4,0,0,0,181.05,51.74Z" fill="#231f20"></path><path d="M242.1,249.68c.2.6,6.38,10.46,6.38,10.46s6.6,1.84,11.43-2.55l-5.35-12.66Z" fill="#fff"></path><path d="M251.82,261a13.38,13.38,0,0,1-3.47-.42.48.48,0,0,1-.29-.21c-1.46-2.33-6.23-10-6.44-10.58a.5.5,0,0,1,.3-.62l12.46-4.75a.51.51,0,0,1,.64.28l5.35,12.66a.48.48,0,0,1-.12.56A12.33,12.33,0,0,1,251.82,261Zm-3-1.33c1,.23,6.41,1.22,10.51-2.25l-5-11.89L242.8,250C243.68,251.48,246.75,256.43,248.8,259.71Zm-6.7-10h0Z" fill="#231f20"></path><path d="M188,259.85l-15.79,11.88c.18,4.6,10,3.17,19.07.8s10.82-4.3,10.82-4.3l-.37-7.89Z" fill="#231f20"></path><path d="M178,275.25q-3.48,0-5-1.14a2.94,2.94,0,0,1-1.23-2.36.46.46,0,0,1,.19-.41l15.79-11.89a.42.42,0,0,1,.32-.1l13.73.49a.5.5,0,0,1,.48.48l.37,7.88a.53.53,0,0,1-.13.36c-.08.09-2,2.09-11.06,4.46A57.39,57.39,0,0,1,178,275.25ZM172.71,272a2,2,0,0,0,.81,1.34c2.16,1.59,8.41,1.15,17.62-1.26,7.39-1.93,9.85-3.58,10.43-4l-.33-7.19-13.1-.47Z" fill="#231f20"></path><path d="M201,246.82l.76,13.52s-7.93,3.75-13.73-.49L185.17,244Z" fill="#fff"></path><path d="M194.64,262.38a11.54,11.54,0,0,1-6.95-2.13.48.48,0,0,1-.2-.32l-2.81-15.86a.5.5,0,0,1,.58-.58L201,246.33a.49.49,0,0,1,.41.46l.76,13.52a.5.5,0,0,1-.28.48A18.84,18.84,0,0,1,194.64,262.38Zm-6.2-2.82c4.84,3.39,11.29,1.06,12.75.46l-.72-12.78-14.68-2.64Z" fill="#231f20"></path><path d="M175.82,149.92l44.38-9.69L258,249.36A17.55,17.55,0,0,1,241,252.48l-39.28-73.77,1.87,74.63c-8,4-18.41-.17-18.41-.17-7.51-22.1-13.92-103.27-13.92-103.27" fill="#231f20"></path><path d="M195.38,255.57a30.9,30.9,0,0,1-10.44-1.94.51.51,0,0,1-.29-.3c-7.44-21.91-13.87-102.58-13.94-103.39a.5.5,0,1,1,1-.08c.07.81,6.45,80.82,13.82,102.93,1.48.54,10.42,3.54,17.51.24l-1.86-74.31a.5.5,0,0,1,.37-.49.5.5,0,0,1,.57.25l39.19,73.6a17.23,17.23,0,0,0,16.15-2.89L219.87,140.81l-43.94,9.6a.5.5,0,1,1-.22-1l44.38-9.7a.51.51,0,0,1,.58.32L258.5,249.2a.49.49,0,0,1-.15.54,18.22,18.22,0,0,1-17.59,3.2.53.53,0,0,1-.25-.22L202.22,180.8,204,253.33a.5.5,0,0,1-.27.46A19,19,0,0,1,195.38,255.57Z" fill="#231f20"></path><path d="M248.48,260.14s1.75,7.23,2.45,8,24.55,5.54,25.76,2.74-16.78-13.33-16.78-13.33S253.51,261,248.48,260.14Z" fill="#231f20"></path><path d="M273.14,272.28c-6.84,0-21.73-2.79-22.58-3.78s-2.27-7-2.56-8.24a.49.49,0,0,1,.12-.46.48.48,0,0,1,.44-.15c4.8.79,11.06-2.46,11.12-2.5a.51.51,0,0,1,.48,0c4.31,2.52,18.28,11,17,13.95-.23.54-.86.87-2,1.05A14.37,14.37,0,0,1,273.14,272.28Zm-24-11.55c.82,3.29,1.81,6.7,2.17,7.12,1.1.69,20.15,4.47,24.37,3.18a1,1,0,0,0,.56-.31c.49-1.15-5.61-6.26-16.34-12.56C258.71,258.75,253.61,261.13,249.14,260.73Z" fill="#231f20"></path><path d="M207.87,56.93a15.55,15.55,0,0,0,.54-8.26c-1-4.13-6.62-8.54-10.61-8.25s-14.51,5.16-15,6.65-1.38,13.09.87,14.56S206.39,61.78,207.87,56.93Z" fill="#fff"></path><path d="M188.39,62.68c-2.47,0-4.35-.21-5-.63-2.69-1.76-1.5-13.84-1.08-15.13.59-1.81,11.41-6.71,15.44-7,4.25-.31,10,4.21,11.13,8.63a15.87,15.87,0,0,1-.55,8.54c-.4,1.28-1.87,2.38-4.39,3.3C199.69,61.93,193,62.68,188.39,62.68Zm9.79-21.78-.35,0c-4,.28-14.1,5.14-14.56,6.31a37.65,37.65,0,0,0-.56,7.13c0,5.61.95,6.67,1.24,6.86,1.45.94,13.27.54,19.66-1.77,2.18-.79,3.49-1.72,3.78-2.67v0a15.2,15.2,0,0,0,.52-8C207,45,201.89,40.9,198.18,40.9Z" fill="#231f20"></path><path d="M185.36,39.31s-2.36,2.32-6.33,0-3.16-6.92-2-8.56,4.61-4.82,7.8-4a12.35,12.35,0,0,1,4.29,1.66s2.62-1.61,8.5-1.72,7.76,2.93,7.76,2.93,4.68-1.88,7.6.81a6.46,6.46,0,0,1,.91,8.82c-1.83,2.15-9.26,1.6-9.26,1.6Z" fill="#fff"></path><path d="M206.76,41.36c-1.1,0-1.95-.06-2.19-.07l-19-1.47c-.67.53-3.09,2.06-6.75-.12a6.27,6.27,0,0,1-3-4.11,7.11,7.11,0,0,1,.85-5.17c1.22-1.75,4.85-5.08,8.33-4.22a15.23,15.23,0,0,1,4.2,1.57c.84-.42,3.54-1.55,8.46-1.64s7.25,2,7.95,2.83c1.2-.4,5.1-1.41,7.76,1a7,7,0,0,1,1,9.51C212.91,41.08,209.2,41.36,206.76,41.36Zm-21.4-2.55h0l19.24,1.48c2,.15,7.48.18,8.84-1.42a6,6,0,0,0-.87-8.13c-2.66-2.45-7-.74-7.07-.72a.49.49,0,0,1-.61-.2c-.07-.11-1.85-2.8-7.33-2.69-5.68.11-8.22,1.63-8.25,1.65a.5.5,0,0,1-.57,0,12.63,12.63,0,0,0-4.1-1.57c-3-.74-6.22,2.32-7.26,3.82a6.11,6.11,0,0,0-.71,4.38,5.24,5.24,0,0,0,2.58,3.47C182.88,41,185,39,185,39A.5.5,0,0,1,185.36,38.81Z" fill="#231f20"></path><path d="M189.3,68.37l-1.82,9.68s3.12,6.08,9.5,4.41,7.37-6.59,7.37-6.6l.43-10.37.26-6.38a6.83,6.83,0,0,0,.08-2c-.22-.66-1-1.13-1.4-1.67a15.82,15.82,0,0,1-1.56-2.55,21.28,21.28,0,0,1-2-5.64,10,10,0,0,1-6.78-2c-.7,1.22,1.46,2.39,1.32,3.78-2.33-.37-5.33-1.13-7-2.83-.82-.09-4,5.61-4.43,7.87a24.44,24.44,0,0,0-.24,8.94C184,68,189.3,68.37,189.3,68.37Z" fill="#fff"></path><path d="M194.82,83.25c-5.17,0-7.76-4.91-7.78-5a.51.51,0,0,1,0-.32l1.72-9.17c-1.46-.25-5.37-1.34-6.12-5.63a25,25,0,0,1,.24-9.13,22.06,22.06,0,0,1,2.13-5c1.91-3.41,2.57-3.33,2.84-3.31a.52.52,0,0,1,.31.16c1.12,1.17,3.14,2,6,2.56a6,6,0,0,0-.56-.9c-.5-.71-1.12-1.58-.59-2.51a.51.51,0,0,1,.34-.25.53.53,0,0,1,.4.1,9.59,9.59,0,0,0,6.44,1.87.5.5,0,0,1,.54.4,20.52,20.52,0,0,0,1.93,5.51,16.31,16.31,0,0,0,1.51,2.47,4.79,4.79,0,0,0,.5.51,3.66,3.66,0,0,1,1,1.3,3.85,3.85,0,0,1,0,1.62c0,.2-.05.39-.05.53l-.69,16.75c0,.07-1,5.3-7.74,7.06A9.1,9.1,0,0,1,194.82,83.25ZM188,78c.52.9,3.42,5.43,8.86,4,6-1.57,7-6.16,7-6.2l.68-16.68a5.56,5.56,0,0,1,.06-.62,3.64,3.64,0,0,0,.05-1.16,2.66,2.66,0,0,0-.73-.9,5.62,5.62,0,0,1-.59-.62,17.07,17.07,0,0,1-1.62-2.63,21.84,21.84,0,0,1-1.94-5.35,10.56,10.56,0,0,1-5.9-1.56,5.92,5.92,0,0,0,.48.75,3.23,3.23,0,0,1,.85,2.15.47.47,0,0,1-.19.34.48.48,0,0,1-.38.1c-3.23-.52-5.57-1.43-7-2.72a23.13,23.13,0,0,0-3.84,7.36,23.89,23.89,0,0,0-.23,8.76c.79,4.51,5.71,4.88,5.76,4.88a.52.52,0,0,1,.36.19.48.48,0,0,1,.09.4Zm-.19-31.22Z" fill="#231f20"></path><path d="M188.35,73.46a6.92,6.92,0,0,0,6.14-2c2.77-2.77,2.5-5,2.5-5a10.67,10.67,0,0,1-7.69,1.94Z" fill="#231f20"></path><path d="M189.52,74.07a5.24,5.24,0,0,1-1.29-.13.49.49,0,0,1-.37-.57l.95-5.09a.52.52,0,0,1,.58-.4,10.23,10.23,0,0,0,7.3-1.84.49.49,0,0,1,.8.33c0,.1.26,2.55-2.65,5.47A7.42,7.42,0,0,1,189.52,74.07Zm-.59-1a6.44,6.44,0,0,0,5.2-1.92,7.9,7.9,0,0,0,2.26-3.71,10.8,10.8,0,0,1-6.69,1.51Z" fill="#231f20"></path><path d="M194.19,52.47s-3.44,5-2.66,5.84,3,.35,3,.35" fill="#fff"></path><path d="M193.16,59.32a2.62,2.62,0,0,1-2-.68c-.87-1,1-4,2.62-6.46a.5.5,0,0,1,.69-.12.49.49,0,0,1,.13.69c-1.61,2.32-2.86,4.77-2.68,5.26.43.47,1.88.31,2.52.16a.5.5,0,0,1,.6.37.49.49,0,0,1-.36.6A7.25,7.25,0,0,1,193.16,59.32Z" fill="#231f20"></path><ellipse cx="198.24" cy="52.18" rx="0.83" ry="1.17" transform="translate(-3.12 13.75) rotate(-3.94)" fill="#231f20"></ellipse><ellipse cx="190.38" cy="52.09" rx="1.17" ry="0.83" transform="translate(96.22 225.57) rotate(-76.81)" fill="#231f20"></ellipse><path d="M192.47,66.11a3.17,3.17,0,0,1-2.44-1c-1.49-1.78-.9-4.73-.87-4.86a.49.49,0,0,1,.49-.39h0c7.66.21,7.7.26,7.89.49a.5.5,0,0,1,.11.39h0A7.59,7.59,0,0,1,196.35,64a4.89,4.89,0,0,1-3.74,2.08Zm-2.4-5.23a5,5,0,0,0,.72,3.58,2.26,2.26,0,0,0,1.78.65,3.93,3.93,0,0,0,3-1.67,6.23,6.23,0,0,0,1-2.32C195.38,61.05,192.29,60.94,190.07,60.88Zm7.1-.2Zm0,0Z" fill="#231f20"></path><path d="M196,63.74c-1.7,2.31-4.52,2.26-5.54,1.06a3.47,3.47,0,0,1,2.35-1.94A4.87,4.87,0,0,1,196,63.74Z" fill="#231f20"></path><path d="M192.47,66.11a3.21,3.21,0,0,1-2.44-1,.52.52,0,0,1-.05-.57,3.8,3.8,0,0,1,2.71-2.18,5.39,5.39,0,0,1,3.54,1,.52.52,0,0,1,.21.33.47.47,0,0,1-.09.38,4.91,4.91,0,0,1-3.74,2.08Zm-1.42-1.4a2.54,2.54,0,0,0,1.52.4,3.84,3.84,0,0,0,2.63-1.24,4,4,0,0,0-2.38-.51A2.73,2.73,0,0,0,191.05,64.71Z" fill="#231f20"></path><path d="M203,56.77c-.11-2.1,2-5,4.31-3.72a3.51,3.51,0,0,1,1.55,2.28c1.11,4.34-2.26,5.88-4.54,7" fill="#fff"></path><path d="M204.34,62.75a.49.49,0,0,1-.46-.27.47.47,0,0,1,.2-.65c2.38-1.12,5.26-2.48,4.26-6.38a3,3,0,0,0-1.3-2,1.8,1.8,0,0,0-1.94.07,3.88,3.88,0,0,0-1.63,3.19.49.49,0,0,1-.47.52.47.47,0,0,1-.52-.47,4.85,4.85,0,0,1,2.09-4.09,2.78,2.78,0,0,1,2.94-.1,3.94,3.94,0,0,1,1.8,2.59c1.2,4.71-2.52,6.46-4.74,7.5A.46.46,0,0,1,204.34,62.75Z" fill="#231f20"></path><path d="M183.92,37.19s-1.2,7.89-1.12,9.88a20.4,20.4,0,0,1,10-2.89c5.49,0,13.34,3.27,15.62,4.49l-1.62-12.28s-3.79-2.09-12-1.27S183.92,37.19,183.92,37.19Z" fill="#fff"></path><path d="M208.41,49.17a.53.53,0,0,1-.24-.06c-2.1-1.13-10-4.4-15.38-4.43h-.07a19.89,19.89,0,0,0-9.65,2.81.5.5,0,0,1-.77-.4c-.08-2,1.08-9.65,1.13-10a.51.51,0,0,1,.28-.38c.11-.05,2.82-1.3,11-2.12S206.87,35.86,207,36a.51.51,0,0,1,.25.38l1.63,12.27a.51.51,0,0,1-.22.48A.47.47,0,0,1,208.41,49.17Zm-15.69-5.49h.08c5.08,0,12,2.7,15,4.12l-1.46-11.08c-.91-.4-4.63-1.79-11.49-1.1-6.68.67-9.65,1.62-10.46,1.93-.19,1.24-.92,6.25-1.06,8.64A20.47,20.47,0,0,1,192.72,43.68Z" fill="#231f20"></path><path d="M183.82,32.9s1.05,5.45,5.22,5.56,9-2.81,9-2.81,8.71,4.11,12.45-.66" fill="#fff"></path><path d="M189.27,39H189c-4.52-.12-5.65-5.72-5.7-6a.5.5,0,1,1,1-.19s1,5.06,4.74,5.15c4,.12,8.71-2.71,8.76-2.73a.49.49,0,0,1,.47,0c.08,0,8.39,3.88,11.84-.52a.5.5,0,1,1,.78.62c-3.62,4.62-11.32,1.57-12.81.92C197.08,36.79,193,39,189.27,39Z" fill="#231f20"></path><path d="M206.69,71.11l-9,1.34-3.52,3.75-1.5-3.85-6.32-2-.65,5.81-12.22,7.16s-6.44,54.42-4,70.38c0,0,43.32,1.58,56.75-6.18,0,0-8.52-40.21-7.28-47.72a119,119,0,0,0,1.28-16.09l-12.82-7.44Z" fill="#68e1fd"></path><path d="M144,79s5-7,5.4-8.49.24-7.42-.24-7.63a3.46,3.46,0,0,0-2.82,1.57,16.32,16.32,0,0,0-.57,3.64,4.92,4.92,0,0,0-3,.82s-1.27-3.52-1.34-3.87,2.28-3.15,2.28-3.15a4,4,0,0,0,3.29.71c1.66-.54,1.86-1,1.11-2.06s-6.65-2.23-6.65-2.23l-3.93,3.9s-.59-5.67,0-6.89,1.74-4.38,1.13-5.38-1.92-.58-2.61.44-2.43,4.46-2.5,5.49,0,6.18,0,6.18-2-4.43-1.82-5.31,2.36-5.06,1.47-6-4.76,4.08-5.11,6,2.09,7.41,2.09,7.41-3.35-2.87-3.35-3.42.23-5.15-.31-5.77-1.92-.51-2.14,1.76-.17,5.64.51,7,6.27,10.89,6.54,11.92-.52,6.45-.52,6.45l11.8.53Z" fill="#fff"></path><path d="M142.7,83.11h0l-11.8-.53a.5.5,0,0,1-.47-.57,36.15,36.15,0,0,0,.52-6.26c-.15-.59-2.64-5-4.29-7.86-1.09-1.92-1.95-3.44-2.21-4-.77-1.56-.76-5.21-.56-7.28.17-1.8,1-2.32,1.46-2.47a1.45,1.45,0,0,1,1.55.42c.36.41.58,1.53.45,5.69,0,.2,0,.34,0,.41a13.58,13.58,0,0,0,1.56,1.6c-.7-1.83-1.53-4.38-1.3-5.68.33-1.79,3.41-6,5-6.49a.93.93,0,0,1,1,.24c.81.88.06,2.94-.92,5.34-.2.49-.39.95-.44,1.14a10.07,10.07,0,0,0,.83,2.73c0-1.49,0-3.2,0-3.76.08-1.17,1.9-4.71,2.58-5.73a2.61,2.61,0,0,1,2-1.23h0a1.6,1.6,0,0,1,1.37.8c.86,1.39-.75,5.18-1.1,5.87s-.25,3.43-.08,5.55l3.18-3.15a.51.51,0,0,1,.44-.13c1.44.27,6.17,1.26,7,2.44a1.87,1.87,0,0,1,.44,1.59,1.14,1.14,0,0,1-.37.53,1.23,1.23,0,0,1,.73.05c1.06.45.75,7.38.52,8.21-.42,1.52-4.76,7.64-5.43,8.59l-1.24,3.55A.51.51,0,0,1,142.7,83.11ZM131.46,81.6l10.89.49,1.14-3.27a.34.34,0,0,1,.06-.12c2-2.78,5-7.29,5.33-8.34a25.36,25.36,0,0,0-.07-7,3.51,3.51,0,0,0-2.05,1.31,14.81,14.81,0,0,0-.53,3.46.51.51,0,0,1-.17.35.44.44,0,0,1-.36.12,4.48,4.48,0,0,0-2.63.73.55.55,0,0,1-.45.08.51.51,0,0,1-.33-.31c-.3-.83-1.29-3.59-1.36-3.94s-.11-.58,2.39-3.57a.51.51,0,0,1,.68-.08,3.54,3.54,0,0,0,2.84.63c1-.32,1.15-.52,1.17-.59s0-.19-.32-.71-3.4-1.44-6.07-2l-3.75,3.71a.5.5,0,0,1-.52.12.51.51,0,0,1-.33-.42c-.1-1-.57-5.89.09-7.17.74-1.45,1.55-4.22,1.14-4.88a.63.63,0,0,0-.54-.34,1.7,1.7,0,0,0-1.23.79,22,22,0,0,0-2.41,5.24c-.08,1,0,6.09,0,6.14a.52.52,0,0,1-.4.5.5.5,0,0,1-.56-.28c-.63-1.38-2.09-4.69-1.86-5.63a10.64,10.64,0,0,1,.48-1.29c.39-.94,1.56-3.8,1.11-4.29-.72,0-3.93,4-4.25,5.76-.27,1.46,1.39,5.63,2.06,7.12a.5.5,0,0,1-.79.58c-3.52-3-3.52-3.59-3.52-3.8s0-.23,0-.44c.12-3.89-.08-4.81-.21-5a.44.44,0,0,0-.48-.12c-.4.13-.69.73-.77,1.61-.23,2.36-.14,5.53.46,6.75.24.49,1.14,2.07,2.18,3.9,2.46,4.33,4.21,7.44,4.39,8.11C132.13,76.43,131.68,80.06,131.46,81.6ZM141.94,65c.12.41.6,1.77,1.08,3.12a5.61,5.61,0,0,1,2.24-.57,13.92,13.92,0,0,1,.58-3.34,2.74,2.74,0,0,1,1-1.09,4.37,4.37,0,0,1-3-.61A22.3,22.3,0,0,0,141.94,65Z" fill="#231f20"></path><path d="M135.43,67.68a8.38,8.38,0,0,1,2.78,6.68,12.35,12.35,0,0,1,4.55-5.46" fill="#fff"></path><path d="M138.21,74.86l-.12,0a.5.5,0,0,1-.38-.53,8,8,0,0,0-2.6-6.25.5.5,0,1,1,.64-.76,9.16,9.16,0,0,1,2.89,5.13,12.8,12.8,0,0,1,3.87-4,.5.5,0,0,1,.51.86,11.94,11.94,0,0,0-4.35,5.22A.49.49,0,0,1,138.21,74.86Z" fill="#231f20"></path><path d="M129.26,64.76s4.14-2.38,6.68-2.5" fill="#fff"></path><path d="M129.26,65.26a.5.5,0,0,1-.25-.93c.18-.1,4.27-2.44,6.9-2.57a.5.5,0,1,1,.05,1c-2.39.12-6.41,2.42-6.45,2.45A.54.54,0,0,1,129.26,65.26Z" fill="#231f20"></path><path d="M250.41,73.06a12,12,0,0,0,.31-4.18c-.3-1.89.11-5.89-.4-7.33s-5.9-5.6-5.52-6.4a2.78,2.78,0,0,1,3.23-.9c1.16.53,5.61,5.09,5.61,5.09L265,52.88l8.87-.58s-7.73,10.2-8.57,11.9-2.23,5.6-3.72,6.57a12.85,12.85,0,0,1-2.43,1.28l-1.44,3.12Z" fill="#fff"></path><path d="M257.71,75.67h-.14l-7.3-2.12a.51.51,0,0,1-.35-.61,11.39,11.39,0,0,0,.3-4,23.84,23.84,0,0,1-.12-3.34,16.25,16.25,0,0,0-.25-3.9,16.32,16.32,0,0,0-2.75-3c-2.3-2.23-3.08-3.07-2.75-3.75a3.24,3.24,0,0,1,3.89-1.14c1.08.49,4.44,3.85,5.49,4.91l11-6.27a.51.51,0,0,1,.21-.06l8.88-.58a.5.5,0,0,1,.43.8c-2.66,3.52-7.87,10.51-8.52,11.82-.19.39-.41.89-.65,1.44-.88,2-2,4.5-3.25,5.33a15.18,15.18,0,0,1-2.33,1.25l-1.36,2.94A.48.48,0,0,1,257.71,75.67Zm-6.71-3,6.44,1.86,1.26-2.73a.47.47,0,0,1,.29-.26,12.4,12.4,0,0,0,2.32-1.23c1-.66,2.14-3.21,2.87-4.89.25-.57.48-1.08.67-1.48.72-1.44,6.07-8.59,8-11.11l-7.68.5-11.25,6.4a.5.5,0,0,1-.6-.08c-1.7-1.74-4.68-4.63-5.47-5a2.39,2.39,0,0,0-2.52.57A18.23,18.23,0,0,0,247.8,58c1.63,1.58,2.72,2.67,3,3.41a15.66,15.66,0,0,1,.31,4.24,23.23,23.23,0,0,0,.11,3.18A11.66,11.66,0,0,1,251,72.71Z" fill="#231f20"></path><path d="M258.28,58.69a20.45,20.45,0,0,1,7.25,2.3" fill="#fff"></path><path d="M265.53,61.49a.5.5,0,0,1-.27-.08,20.07,20.07,0,0,0-7-2.22.5.5,0,0,1,.11-1,20.81,20.81,0,0,1,7.46,2.37.5.5,0,0,1,.16.69A.52.52,0,0,1,265.53,61.49Z" fill="#231f20"></path><line x1="260.37" y1="59.06" x2="267.86" y2="52.95" fill="#fff"></line><path d="M260.37,59.56a.5.5,0,0,1-.31-.89l7.48-6.1a.5.5,0,1,1,.63.77l-7.48,6.11A.54.54,0,0,1,260.37,59.56Z" fill="#231f20"></path><line x1="263.49" y1="59.99" x2="270.77" y2="52.76" fill="#fff"></line><path d="M263.49,60.49a.51.51,0,0,1-.36-.15.51.51,0,0,1,0-.71l7.28-7.22a.5.5,0,0,1,.71.71l-7.28,7.22A.5.5,0,0,1,263.49,60.49Z" fill="#231f20"></path><path d="M253.64,59.34s3.89,4.48,3.08,8" fill="#fff"></path><path d="M256.72,67.88h-.11a.5.5,0,0,1-.37-.6c.74-3.27-2.94-7.56-3-7.6a.51.51,0,0,1,0-.71.49.49,0,0,1,.7,0c.17.19,4,4.72,3.19,8.48A.49.49,0,0,1,256.72,67.88Z" fill="#231f20"></path><path d="M230.72,48.06s5.23,1.92,5.47,6.2l48.41.25c.28-4.28,5.53-6.15,5.53-6.15Z" fill="#fff"></path><path d="M284.59,55h0l-48.4-.25a.5.5,0,0,1-.5-.47c-.22-3.89-5.1-5.75-5.15-5.76a.5.5,0,0,1-.31-.56.49.49,0,0,1,.49-.41h0l59.41.3a.49.49,0,0,1,.49.41.5.5,0,0,1-.32.56c-.05,0-4.94,1.82-5.21,5.71A.5.5,0,0,1,284.59,55Zm-47.95-1.25,47.51.24A7.62,7.62,0,0,1,288,48.85l-55.2-.28A7.63,7.63,0,0,1,236.64,53.76Z" fill="#231f20"></path><path d="M173.45,83.31,145,99.83l.1-19.65-16,.51s-7.58,30.47-3,38.11,37.55-2.9,50-13.46Z" fill="#68e1fd"></path><path d="M220.23,83.7l18,8,11.1-21.9,12.89,3.09S254.64,111,245.42,110.5s-42.67-10.84-42.67-10.84Z" fill="#68e1fd"></path><path d="M175.82,150.42a.5.5,0,0,1-.5-.49c-.15-15.73,2.88-58.62,2.91-59.06a.49.49,0,0,1,.24-.39l15.12-8.81,0-5.48a.52.52,0,0,1,.51-.49.49.49,0,0,1,.49.5l0,5.77a.49.49,0,0,1-.25.42l-15.13,8.82c-.26,3.65-3,43.67-2.89,58.71a.5.5,0,0,1-.49.5Z" fill="#231f20"></path><circle cx="185.96" cy="93.68" r="1.83" fill="#231f20"></circle><circle cx="200.52" cy="93.75" r="1.83" fill="#231f20"></circle><circle cx="256.78" cy="76.51" r="1.83" fill="#231f20"></circle><circle cx="184.31" cy="117.45" r="1.83" fill="#231f20"></circle><circle cx="140.84" cy="84.3" r="1.83" fill="#231f20"></circle><circle cx="196.47" cy="117.51" r="1.83" fill="#231f20"></circle><circle cx="182.37" cy="140.04" r="1.83" fill="#231f20"></circle><circle cx="196.63" cy="140.11" r="1.83" fill="#231f20"></circle><path d="M169,139.36a.5.5,0,0,1-.5-.48C168,124.46,172.26,92,172.3,91.72a.5.5,0,0,1,.56-.43.49.49,0,0,1,.43.56c0,.32-4.27,32.66-3.82,47a.5.5,0,0,1-.48.52Z" fill="#231f20"></path><path d="M245.39,111c-6,0-35.64-8.71-36.9-9.08a.5.5,0,0,1,.29-1c.3.09,30.74,9,36.61,9h0a.5.5,0,0,1,0,1Z" fill="#231f20"></path><path d="M128.7,89a.5.5,0,0,1,0-1l14.65-.58a.51.51,0,0,1,.52.48.52.52,0,0,1-.48.52L128.72,89Z" fill="#231f20"></path><path d="M234.51,99.81a.59.59,0,0,1-.22,0,.49.49,0,0,1-.22-.67l12.7-25.45a.5.5,0,1,1,.9.44L235,99.53A.49.49,0,0,1,234.51,99.81Z" fill="#231f20"></path><path d="M258.58,82.19h-.13l-11.38-3.06a.5.5,0,0,1,.26-1l11.38,3.06a.5.5,0,0,1-.13,1Z" fill="#231f20"></path><circle cx="261.01" cy="27.91" r="2.66" fill="#fff"></circle><path d="M261,31.07h0a3.18,3.18,0,0,1-2.23-.94A3.16,3.16,0,0,1,261,24.75h0a3.16,3.16,0,0,1,3.14,3.17h0a3.1,3.1,0,0,1-.93,2.23A3.16,3.16,0,0,1,261,31.07Zm0-5.32a2.17,2.17,0,0,0-2.16,2.15,2.15,2.15,0,0,0,3.67,1.54,2.16,2.16,0,0,0,0-3.05,2.14,2.14,0,0,0-1.52-.64Zm2.65,2.17h0Z" fill="#231f20"></path><path d="M286.93,48.45C284.7,37,274,28.29,261.14,28.23s-23.65,8.53-26,20Z" fill="#fff"></path><path d="M286.93,49h0l-51.79-.26a.51.51,0,0,1-.49-.61c2.43-11.81,13.5-20.35,26.34-20.35h.15c12.91.06,24,8.74,26.28,20.62a.53.53,0,0,1-.1.42A.53.53,0,0,1,286.93,49Zm-51.17-1.26,50.56.26c-2.48-11.12-13-19.16-25.19-19.22H261C248.84,28.73,238.34,36.65,235.76,47.69Z" fill="#231f20"></path><rect x="230.72" y="46.81" width="59.42" height="2.4" transform="translate(0.25 -1.32) rotate(0.29)" fill="#fff"></rect><path d="M290.13,49.86h0l-59.42-.3a.51.51,0,0,1-.5-.5v-2.4a.51.51,0,0,1,.5-.5h0l59.42.3a.47.47,0,0,1,.35.15.5.5,0,0,1,.14.35v2.4A.5.5,0,0,1,290.13,49.86Zm-58.92-1.3,58.42.3v-1.4l-58.42-.3Z" fill="#231f20"></path><rect x="243.73" y="144.35" width="16.85" height="2.34" transform="translate(476.05 331.61) rotate(-170.26)" fill="#fff"></rect><path d="M260.26,148.6h-.09l-16.6-2.85a.52.52,0,0,1-.33-.21.48.48,0,0,1-.08-.37l.39-2.3a.51.51,0,0,1,.58-.41l16.61,2.85a.47.47,0,0,1,.32.21.48.48,0,0,1,.09.37l-.4,2.3A.5.5,0,0,1,260.26,148.6Zm-16-3.76,15.62,2.68.23-1.32-15.63-2.68Z" fill="#d1d3d4"></path><rect x="233.75" y="141.72" width="16.85" height="4.18" rx="2.02" transform="translate(456.53 326.52) rotate(-170.26)" fill="#fff"></rect><path d="M248.48,147.48l-.43,0-12.62-2.17a2.53,2.53,0,0,1-2.06-2.91l0-.14a2.54,2.54,0,0,1,2.91-2.06l12.63,2.17a2.53,2.53,0,0,1,2.06,2.91l0,.14A2.53,2.53,0,0,1,248.48,147.48Zm-12.6-6.35a1.53,1.53,0,0,0-1.5,1.27l0,.13a1.52,1.52,0,0,0,.25,1.14,1.55,1.55,0,0,0,1,.62h0l12.62,2.17a1.53,1.53,0,0,0,1.76-1.24l0-.14a1.51,1.51,0,0,0-1.24-1.76l-12.63-2.16A1.07,1.07,0,0,0,235.88,141.13Z" fill="#d1d3d4"></path><rect x="251.13" y="155.91" width="50.63" height="6.6" rx="2.27" transform="translate(552.89 318.42) rotate(-180)" fill="#fff"></rect><path d="M299.49,163H253.4a2.77,2.77,0,0,1-2.77-2.77v-2.06a2.77,2.77,0,0,1,2.77-2.77h46.09a2.77,2.77,0,0,1,2.77,2.77v2.06A2.77,2.77,0,0,1,299.49,163Zm-46.09-6.6a1.77,1.77,0,0,0-1.77,1.77v2.06A1.77,1.77,0,0,0,253.4,162h46.09a1.77,1.77,0,0,0,1.77-1.77v-2.06a1.77,1.77,0,0,0-1.77-1.77Z" fill="#d1d3d4"></path><polygon points="292.31 155.87 288.86 150.96 286.79 150.96 288.86 155.87 292.31 155.87" fill="#fff"></polygon><path d="M292.31,156.37h-3.45a.5.5,0,0,1-.46-.31l-2.07-4.9a.51.51,0,0,1,0-.48.5.5,0,0,1,.42-.22h2.07a.51.51,0,0,1,.41.21l3.45,4.91a.51.51,0,0,1,0,.52A.5.5,0,0,1,292.31,156.37Zm-3.12-1h2.15l-2.74-3.91h-1.06Z" fill="#d1d3d4"></path><polygon points="260.05 155.91 262.89 151.87 264.6 151.87 262.89 155.91 260.05 155.91" fill="#fff"></polygon><path d="M262.89,156.41h-2.84a.5.5,0,0,1-.44-.27.51.51,0,0,1,0-.52l2.84-4a.51.51,0,0,1,.41-.21h1.7a.5.5,0,0,1,.42.22.52.52,0,0,1,.05.47l-1.71,4A.5.5,0,0,1,262.89,156.41Zm-1.88-1h1.55l1.28-3h-.69Z" fill="#d1d3d4"></path><rect x="275.15" y="151.87" width="2.07" height="4.04" transform="translate(552.36 307.78) rotate(-180)" fill="#fff"></rect><path d="M277.21,156.41h-2.06a.5.5,0,0,1-.5-.5v-4a.5.5,0,0,1,.5-.5h2.06a.5.5,0,0,1,.5.5v4A.5.5,0,0,1,277.21,156.41Zm-1.56-1h1.06v-3h-1.06Z" fill="#d1d3d4"></path><path d="M260,143.08h32.28a3.25,3.25,0,0,1,3.25,3.25v5.53a0,0,0,0,1,0,0H256.79a0,0,0,0,1,0,0v-5.53a3.25,3.25,0,0,1,3.25-3.25Z" transform="translate(552.36 294.95) rotate(-180)" fill="#fff"></path><path d="M292.32,152.37H260a3.75,3.75,0,0,1-3.75-3.75v-5.54a.5.5,0,0,1,.5-.5h38.78a.5.5,0,0,1,.5.5v5.54A3.75,3.75,0,0,1,292.32,152.37Zm-35-8.79v5a2.75,2.75,0,0,0,2.75,2.75h32.28a2.75,2.75,0,0,0,2.75-2.75v-5Z" fill="#d1d3d4"></path><path d="M116.13,140.22h39.16a0,0,0,0,1,0,0v17.6a4.69,4.69,0,0,1-4.69,4.69H120.82a4.69,4.69,0,0,1-4.69-4.69v-17.6A0,0,0,0,1,116.13,140.22Z" fill="#fff"></path><path d="M150.6,163H120.82a5.2,5.2,0,0,1-5.19-5.19v-17.6a.5.5,0,0,1,.5-.5h39.16a.5.5,0,0,1,.5.5v17.6A5.19,5.19,0,0,1,150.6,163Zm-34-22.29v17.1a4.2,4.2,0,0,0,4.19,4.19H150.6a4.19,4.19,0,0,0,4.19-4.19v-17.1Z" fill="#d1d3d4"></path><path d="M135.71,132.47c-12,0-19.58,3.47-19.58,7.75h39.16C155.29,135.94,147.7,132.47,135.71,132.47Z" fill="#fff"></path><path d="M155.29,140.72H116.13a.5.5,0,0,1-.5-.5c0-4.86,8.26-8.25,20.08-8.25s20.08,3.39,20.08,8.25A.5.5,0,0,1,155.29,140.72Zm-38.62-1h38.08c-.57-3.43-7.09-6.75-19-6.75S117.25,136.29,116.67,139.72Z" fill="#d1d3d4"></path><path d="M112.89,141.9h3.24a0,0,0,0,1,0,0v1.74a0,0,0,0,1,0,0h-3.24a.87.87,0,0,1-.87-.87v0A.87.87,0,0,1,112.89,141.9Z" fill="#fff"></path><path d="M116.13,144.14h-3.24a1.37,1.37,0,1,1,0-2.74h3.24a.5.5,0,0,1,.5.5v1.74A.5.5,0,0,1,116.13,144.14Zm-3.24-1.74a.37.37,0,0,0-.38.37.38.38,0,0,0,.38.37h2.74v-.74Z" fill="#d1d3d4"></path><path d="M155.29,141.9h3.24a.87.87,0,0,1,.87.87v0a.87.87,0,0,1-.87.87h-3.24a0,0,0,0,1,0,0V141.9a0,0,0,0,1,0,0Z" fill="#fff"></path><path d="M158.54,144.14h-3.25a.5.5,0,0,1-.5-.5V141.9a.5.5,0,0,1,.5-.5h3.25a1.37,1.37,0,0,1,0,2.74Zm-2.75-1h2.75a.37.37,0,0,0,.37-.37.36.36,0,0,0-.37-.37h-2.75Z" fill="#d1d3d4"></path><path d="M141.14,134.91H130.29a.5.5,0,0,1-.5-.5v-1.69a4.4,4.4,0,0,1,4.39-4.39h3.07a4.4,4.4,0,0,1,4.39,4.39v1.69A.5.5,0,0,1,141.14,134.91Zm-10.35-1h9.85v-1.19a3.39,3.39,0,0,0-3.39-3.39h-3.07a3.39,3.39,0,0,0-3.39,3.39Z" fill="#d1d3d4"></path></g></svg>