<svg id="Layer_2" data-name="Layer 2" xmlns="http://www.w3.org/2000/svg" xmlns:xlink="http://www.w3.org/1999/xlink" viewBox="0 0 400 300" width="406" height="306" class="illustration styles_illustrationTablet__1DWOa"><defs><linearGradient id="linear-gradient" x1="120.75" y1="214.62" x2="163.73" y2="174.2" gradientUnits="userSpaceOnUse"><stop offset="0" stop-opacity="0"></stop><stop offset="0.99" stop-color="#552800"></stop></linearGradient></defs><title>PP</title><path d="M194.2,281.32,21.7,179.37c-5.49-3.08-10.2-8.15-4.85-11.46L190,68.13c2.6-1.61,6.54-2.66,9.18-1.13L380.23,172.1c5.49,3.19,6.48,12.1,1,15.29L216.94,281.16A22.94,22.94,0,0,1,194.2,281.32Z" fill="#16a79e"></path><path d="M108.31,216.45c4.68,1.43,9.36,2.84,14.16,3.8a72.49,72.49,0,0,0,8.87,1l30.73,28,42.73-45.7-60.37-20.07L64.12,194.38C71.83,200,99.28,213.69,108.31,216.45Z" opacity="0.32" fill="url(#linear-gradient)"></path><path d="M135.25,191.38s2.68,19.36,39.76,19.36c45,0,43.71-26.58,43.71-26.58" fill="#68e1fd"></path><path d="M135.25,191.38s2.68,19.36,39.76,19.36c45,0,43.71-26.58,43.71-26.58" fill="#093e3e" opacity="0.68"></path><path d="M93.75,121s4.32,83.08,85,81.34c74.46-1.61,78.45-81.34,78.45-81.34Z" fill="#68e1fd"></path><path d="M171.69,195.72c-8.76-5.43-16.23-13.34-22.18-21.7-11.05-15.51-16.58-34-17.32-52.91H93.75s4.32,83.08,85,81.34c2.73-.06,5.36-.24,7.9-.5A52.31,52.31,0,0,1,171.69,195.72Z" fill="#093e3e" opacity="0.29"></path><ellipse cx="175.45" cy="121.6" rx="81.7" ry="48.04" fill="#ffa87d" stroke="#ddd" stroke-miterlimit="10"></ellipse><path d="M175.45,94.2c37.6,0,68.92,15.19,75.91,35.32a25.8,25.8,0,0,0,1.47-8.5c0-24.2-34.64-43.82-77.38-43.82S98.07,96.81,98.07,121a25.8,25.8,0,0,0,1.47,8.5C106.53,109.39,137.85,94.2,175.45,94.2Z" fill="#68e1fd"></path><path d="M200.6,162.46q-4.24.83-8.7,1.38C195,164.53,197.95,164.57,200.6,162.46Z" fill="none"></path><path d="M121.49,142.88c6.22-.24,10.66,4.66,16.52,5.5,6.75,1,9-7.52,11.91-12,2.64-4.07,6.47-7.62,11.61-7.52,5.41.11,14.42,8.85,19,5.06,2.05-1.69,2.48-5.44,3.72-7.73a14.42,14.42,0,0,1,4.3-4.9c4.86-3.51,10.34-2.94,15.75-1.18,2.93,1,7.15,2.82,10.17,1.12s2.64-6.38,3.62-9.16a15.84,15.84,0,0,1,6.23-8q-3-1.4-6.32-2.63a13.09,13.09,0,0,1-3.26,4.28c-5.34,4.54-12,2.23-17.67-.11-3.66-1.5-8.48-3.38-11.56.16-1.46,1.67-2.27,3.85-3.33,5.77-2.13,3.85-5.16,7.18-9.88,7.23-5.27.06-9-4.56-14-5-6.77-.56-8.45,9.77-12.46,13.61a14.1,14.1,0,0,1-13.75,3c-2.43-.76-4.21-2.37-6.15-3.92-3.73-3-8.34-2.31-10,2.47-1.8,5.12-2.64,9.53-7.9,12.24-.29.15-.58.26-.87.38a50.44,50.44,0,0,0,6,5.34A12,12,0,0,1,121.49,142.88Z" fill="#fed337"></path><path d="M108.41,133.55c1.87-2.78,1.69-6.55,3.47-9.45a11.51,11.51,0,0,1,13.8-4.48c3,1.22,4.92,4.24,8,5.32,4.25,1.5,8-.68,10.19-4.21,3.24-5.09,5.3-11.78,12.23-12.63a13.25,13.25,0,0,1,6.7,1.15c2.84,1.16,6.37,4,9.56,3.79,5.1-.4,6.39-8.68,9.59-11.85,4.83-4.79,11.34-3.26,17-1,3.83,1.53,9.07,4.29,12.67.7a7.31,7.31,0,0,0,1-1.3,123.16,123.16,0,0,0-30.16-5.2c-2.26,3.43-5.2,6.25-9.47,7.47a16.52,16.52,0,0,1-9.57-.18c-3.56-1.17-7.15-5.42-11.09-4.62-4.44.91-7.05,6.39-10,9.3a20.38,20.38,0,0,1-8,4.83A21.27,21.27,0,0,1,117,109.3c-8.68,5.66-14.84,12.58-17.49,20.22a31.05,31.05,0,0,0,3.79,7.39A8.07,8.07,0,0,0,108.41,133.55Z" fill="#fed337"></path><path d="M174.89,94.21c-4.37,0-8.66.24-12.82.65a21.67,21.67,0,0,0,2.83,1.28A9.34,9.34,0,0,0,174.89,94.21Z" fill="#fed337"></path><path d="M136.17,104a26.54,26.54,0,0,0,5.4-5.37,94.78,94.78,0,0,0-18.38,7.09A15.06,15.06,0,0,0,136.17,104Z" fill="#fed337"></path><path d="M159.49,147.56c4.14-3.39,9.3-4.85,14.44-3,5.36,2,13.59,11.45,18.05,3.69,2.72-4.72,3.34-9.73,9.16-11.77,6.44-2.26,10.45,2.33,16.36,3.44,7.77,1.46,10-8.61,14.1-13.22a21.4,21.4,0,0,1,14.06-7.11,54.39,54.39,0,0,0-15.05-12.31,9.94,9.94,0,0,0-3.1,1.43c-3.41,2.34-4.09,5.73-4.94,9.44-1.33,5.86-5.26,9.5-11.41,9.38-7.33-.14-16.29-7.42-21.65,1-3.13,4.91-3.3,11.27-10.45,12-3.2.34-6.28-.81-9.08-2.25-3.7-1.9-7.64-5.23-11.85-2.69-5.56,3.35-6.49,11.88-11.64,16-4.57,3.65-9.93,2.86-14.93.59-2.79-1.27-5.78-3.41-8.91-3.58a6.54,6.54,0,0,0-4.76,1.67,93.19,93.19,0,0,0,29.21,11.5C152.35,159.23,155,151.22,159.49,147.56Z" fill="#fed337"></path><path d="M238.35,128.3c-5.07,3.72-6.44,10.29-11,14.44A12.08,12.08,0,0,1,214.68,145c-2.9-1-5.62-3-8.71-3.36-4.24-.48-6.05,2.43-7.51,5.89-1.84,4.34-3.78,8.53-8.91,9.44-5.36,1-9.81-2.46-14-5.13-10.89-6.87-15,4.22-21.37,11.26a130.94,130.94,0,0,0,13.54,1.47,19.84,19.84,0,0,1,16.76-3c2.44.62,5,1.62,7.47,2.18q4.45-.55,8.7-1.38a9.86,9.86,0,0,0,.93-.84c3.22-3.31,5.16-6.69,10-8a14.46,14.46,0,0,1,6.36-.18c2.24.42,4.27,1.72,6.41,1.53q1.41-.65,2.76-1.33c1.32-1.38,1.87-3.55,3.07-5.24a19.55,19.55,0,0,1,3.81-4A20.78,20.78,0,0,1,245.15,140a33,33,0,0,0,6.21-10.52,29.48,29.48,0,0,0-1.91-4.29A16.12,16.12,0,0,0,238.35,128.3Z" fill="#fed337"></path><path d="M116,129c1.68-4.79,6.29-5.44,10-2.47,1.95,1.55,3.72,3.15,6.15,3.92a14.1,14.1,0,0,0,13.75-3c4-3.85,5.69-14.17,12.46-13.61,5,.41,8.73,5,14,5,4.72-.06,7.75-3.38,9.88-7.23,1.06-1.92,1.87-4.1,3.33-5.77,3.08-3.53,7.9-1.65,11.56-.16,5.72,2.34,12.33,4.65,17.67.11a13.09,13.09,0,0,0,3.26-4.28q-2.66-1-5.46-1.86a7.31,7.31,0,0,1-1,1.3c-3.6,3.59-8.84.83-12.67-.7-5.63-2.25-12.14-3.78-17,1-3.19,3.17-4.49,11.44-9.59,11.85-3.19.25-6.71-2.63-9.56-3.79a13.25,13.25,0,0,0-6.7-1.15c-6.93.85-9,7.54-12.23,12.63-2.24,3.53-5.95,5.71-10.19,4.21-3-1.08-4.94-4.1-8-5.32a11.51,11.51,0,0,0-13.8,4.48c-1.78,2.9-1.6,6.66-3.47,9.45a8.07,8.07,0,0,1-5.08,3.36,39.65,39.65,0,0,0,3.86,4.74c.29-.13.58-.24.87-.38C113.32,138.55,114.15,134.14,116,129Z" fill="#f4b322"></path><path d="M131.58,152.2c5,2.28,10.37,3.06,14.93-.59,5.15-4.11,6.07-12.63,11.64-16,4.21-2.54,8.14.79,11.85,2.69,2.8,1.43,5.88,2.59,9.08,2.25,7.15-.76,7.32-7.12,10.45-12,5.36-8.4,14.31-1.12,21.65-1,6.15.12,10.08-3.52,11.41-9.38.84-3.72,1.52-7.1,4.94-9.44a9.94,9.94,0,0,1,3.1-1.43q-3-1.71-6.26-3.24a15.84,15.84,0,0,0-6.23,8c-1,2.78-.68,7.52-3.62,9.16s-7.24-.17-10.17-1.12c-5.41-1.76-10.89-2.34-15.75,1.18a14.42,14.42,0,0,0-4.3,4.9c-1.23,2.29-1.67,6-3.72,7.73-4.61,3.79-13.62-5-19-5.06-5.15-.1-9,3.45-11.61,7.52-2.9,4.46-5.16,13-11.91,12-5.86-.84-10.31-5.74-16.52-5.5a12,12,0,0,0-8.34,4.11q2.24,1.72,4.77,3.31a6.54,6.54,0,0,1,4.76-1.67C125.79,148.79,128.79,150.94,131.58,152.2Z" fill="#f4b322"></path><path d="M231.6,126.72c-4.13,4.61-6.33,14.68-14.1,13.22-5.91-1.11-9.92-5.7-16.36-3.44-5.82,2-6.44,7-9.16,11.77-4.47,7.76-12.69-1.73-18.05-3.69-5.14-1.88-10.3-.41-14.44,3-4.47,3.66-7.14,11.68-12.36,14.24q3.42.76,7,1.35c6.38-7,10.48-18.13,21.37-11.26,4.24,2.67,8.68,6.09,14,5.13,5.14-.92,7.08-5.1,8.91-9.44,1.46-3.45,3.27-6.37,7.51-5.89,3.1.35,5.81,2.34,8.71,3.36a12.08,12.08,0,0,0,12.64-2.31c4.59-4.15,6-10.72,11-14.44a16.12,16.12,0,0,1,11.11-3.06,35.31,35.31,0,0,0-3.8-5.62A21.4,21.4,0,0,0,231.6,126.72Z" fill="#f4b322"></path><path d="M134.27,111.19a20.38,20.38,0,0,0,8-4.83c3-2.91,5.59-8.39,10-9.3,3.93-.81,7.53,3.44,11.09,4.62a16.52,16.52,0,0,0,9.57.18c4.27-1.21,7.21-4,9.47-7.47q-3.44-.17-7-.18h-.56a9.34,9.34,0,0,1-10,1.93,21.67,21.67,0,0,1-2.83-1.28,122.17,122.17,0,0,0-20.5,3.77,26.54,26.54,0,0,1-5.4,5.37,15.06,15.06,0,0,1-13,1.72q-3.25,1.69-6.15,3.58A21.27,21.27,0,0,0,134.27,111.19Z" fill="#f4b322"></path><path d="M191.9,163.84c-2.5-.57-5-1.56-7.47-2.18a19.84,19.84,0,0,0-16.76,3c2.56.14,5.15.23,7.78.23A135.2,135.2,0,0,0,191.9,163.84Z" fill="#f4b322"></path><path d="M154,102.27c-.18-5.56,5.09-7.48,6.71-12.15,2-5.73-6.17-9.27-7.73-14.23a12,12,0,0,1-.28-7.05c-2.18,2.68-4.19,5.65-2.84,9.21,1.51,4,9,6.57,4.84,11.55-2.39,2.84-5.35,4.91-5.19,9a9.64,9.64,0,0,0,6,8.35c.09,0,.19.06.28.09A8,8,0,0,1,154,102.27Z" fill="#fff"></path><path d="M169.75,150.57s6.75-.61,5.29,6.62l5,.4s-.94-6.53-5.42-8.22S169.75,150.57,169.75,150.57Z" fill="#55823d"></path><path d="M163.81,108.76s-6.57-1.64-2.82-8l-4.58-2s-1.26,6.48,2.42,9.55S163.81,108.76,163.81,108.76Z" fill="#55823d"></path><path d="M189.75,141.89a1.58,1.58,0,0,0,0,3.15A1.58,1.58,0,0,0,189.75,141.89Z" fill="#b25636"></path><path d="M168.51,116.33a1.58,1.58,0,0,0,0,3.15A1.58,1.58,0,0,0,168.51,116.33Z" fill="#b25636"></path><path d="M166.71,159.53a1.58,1.58,0,0,0,0,3.15A1.58,1.58,0,0,0,166.71,159.53Z" fill="#b25636"></path><path d="M189,159.89a1.58,1.58,0,0,0,0,3.15A1.58,1.58,0,0,0,189,159.89Z" fill="#b25636"></path><path d="M115.81,150.94a1.31,1.31,0,0,0,0,2.62A1.31,1.31,0,0,0,115.81,150.94Z" fill="#b25636"></path><path d="M146.91,100.49a1.58,1.58,0,0,0,0,3.15A1.58,1.58,0,0,0,146.91,100.49Z" fill="#b25636"></path><path d="M120.51,78a22.38,22.38,0,0,0-2.57,5c-.5,1.92,10.5,30.4,15,32.18s30.88-3.67,30.86-3.7,3.2-3.3,3.2-3.3" fill="#662f2f"></path><path d="M167,108.2s-5-25.88-12.79-30.4-29.35-2.55-33.68.24S130.78,112.4,135,113.42,167,108.2,167,108.2Z" fill="#9e5454"></path><path d="M164.14,106.62s-4.38-22.83-11.28-26.82S127,77.55,123.14,80s9.06,30.31,12.82,31.21S164.14,106.62,164.14,106.62Z" fill="#f6b0b0"></path><path d="M133.75,89.64a2.61,2.61,0,0,1,2-3.55c3.52-.52,9-1.09,11.24-.12,3.51,1.49,6.91,12.41,5.56,13.42s-12.87,2.9-13.84,1.74C138.08,100.32,135.35,93.65,133.75,89.64Z" fill="#ffe6e6"></path><path d="M102.56,87.89a22.38,22.38,0,0,0-3.1,4.67c-.7,1.85,7.13,31.37,11.4,33.62s31.09-.28,31.08-.32,3.54-2.93,3.54-2.93" fill="#662f2f"></path><path d="M145.48,122.93s-2.12-26.27-9.41-31.61-28.9-5.73-33.51-3.43,6.47,35.28,10.6,36.75S145.48,122.93,145.48,122.93Z" fill="#9e5454"></path><path d="M142.82,121s-1.87-23.17-8.3-27.89S109,88.1,105,90.13s5.71,31.12,9.35,32.42S142.82,121,142.82,121Z" fill="#f6b0b0"></path><path d="M114.45,100.86a2.61,2.61,0,0,1,2.42-3.31c3.56-.13,9-.11,11.19,1.11,3.33,1.86,5.52,13.09,4.06,13.94s-13.11,1.48-13.95.22C117.6,111.95,115.61,105,114.45,100.86Z" fill="#ffe6e6"></path><ellipse cx="130.14" cy="133.94" rx="26.15" ry="15.09" fill="#ccbdb8"></ellipse><ellipse cx="130.14" cy="129.47" rx="26.15" ry="15.09" fill="#f0f0f0"></ellipse><ellipse cx="133.58" cy="131" rx="18.09" ry="8.99" fill="#f4b322"></ellipse><ellipse cx="139.54" cy="129.43" rx="5.95" ry="3.43" fill="#fff2d4"></ellipse><path d="M243.08,142.39a2.57,2.57,0,0,0-.41-3.51,2.52,2.52,0,0,0-3.51.41,9.68,9.68,0,0,1-2.38,2.64,2.5,2.5,0,1,0,3,4A14.34,14.34,0,0,0,243.08,142.39Z" fill="#83ca50"></path><path d="M240.17,131.22a2.5,2.5,0,1,0-5,.58,3.91,3.91,0,0,1-.08,1.27c0-.13-.19.51-.24.63s-.1.2-.15.3l-.14.2a2.5,2.5,0,0,0,3.92,3.1A8.88,8.88,0,0,0,240.17,131.22Z" fill="#71b739"></path><path d="M247,134a14.84,14.84,0,0,0,1.34-6.85,2.52,2.52,0,0,0-2.77-2.19,2.55,2.55,0,0,0-2.19,2.77,9.43,9.43,0,0,1-1,4.32,2.5,2.5,0,1,0,4.61,2Z" fill="#599b1f"></path><path d="M226.7,152.29A2.57,2.57,0,0,0,228,149a2.52,2.52,0,0,0-3.3-1.26,9.68,9.68,0,0,1-3.33,1.25,2.5,2.5,0,1,0,.76,4.94A14.34,14.34,0,0,0,226.7,152.29Z" fill="#83ca50"></path><path d="M229.27,141a2.5,2.5,0,1,0-4.67-1.78,3.91,3.91,0,0,1-.65,1.09c.09-.1-.4.36-.5.44l-.27.19-.21.11a2.5,2.5,0,1,0,2,4.56A8.88,8.88,0,0,0,229.27,141Z" fill="#71b739"></path><path d="M234.09,146.68a14.84,14.84,0,0,0,4.35-5.45A2.52,2.52,0,0,0,237,138a2.55,2.55,0,0,0-3.23,1.45,9.43,9.43,0,0,1-2.86,3.38,2.5,2.5,0,1,0,3.19,3.86Z" fill="#599b1f"></path><path d="M230.16,144.35a2.57,2.57,0,0,0-.41-3.51,2.52,2.52,0,0,0-3.51.41,9.68,9.68,0,0,1-2.38,2.64,2.5,2.5,0,0,0,3,4A14.34,14.34,0,0,0,230.16,144.35Z" fill="#83ca50"></path><path d="M227.24,133.18a2.5,2.5,0,0,0-5,.58,3.91,3.91,0,0,1-.08,1.27c0-.13-.19.51-.24.63s-.1.2-.15.3l-.14.2a2.5,2.5,0,1,0,3.92,3.1A8.88,8.88,0,0,0,227.24,133.18Z" fill="#71b739"></path><path d="M234.12,136a14.84,14.84,0,0,0,1.34-6.85,2.52,2.52,0,0,0-2.77-2.19,2.55,2.55,0,0,0-2.19,2.77,9.43,9.43,0,0,1-1,4.32,2.5,2.5,0,1,0,4.61,2Z" fill="#599b1f"></path><path d="M217.64,159.79a2.57,2.57,0,0,0,.92-3.41,2.52,2.52,0,0,0-3.41-.92A9.68,9.68,0,0,1,212,157a2.5,2.5,0,1,0,1.25,4.84A14.34,14.34,0,0,0,217.64,159.79Z" fill="#83ca50"></path><path d="M219.07,148.34a2.5,2.5,0,0,0-4.83-1.31,3.91,3.91,0,0,1-.54,1.15c.08-.11-.37.4-.46.49l-.25.22-.2.13a2.5,2.5,0,1,0,2.49,4.34A8.88,8.88,0,0,0,219.07,148.34Z" fill="#71b739"></path><path d="M224.43,153.48a14.84,14.84,0,0,0,3.78-5.86,2.52,2.52,0,0,0-1.76-3.07,2.55,2.55,0,0,0-3.07,1.76,9.43,9.43,0,0,1-2.51,3.65,2.5,2.5,0,1,0,3.55,3.52Z" fill="#599b1f"></path><path d="M219.88,143.41a2.57,2.57,0,0,0-.41-3.51,2.52,2.52,0,0,0-3.51.41,9.68,9.68,0,0,1-2.38,2.64,2.5,2.5,0,1,0,3,4A14.34,14.34,0,0,0,219.88,143.41Z" fill="#83ca50"></path><path d="M217,132.24a2.5,2.5,0,0,0-5,.58,3.91,3.91,0,0,1-.08,1.27c0-.13-.19.51-.24.63s-.1.2-.15.3l-.14.2a2.5,2.5,0,0,0,3.92,3.1A8.88,8.88,0,0,0,217,132.24Z" fill="#71b739"></path><path d="M223.84,135a14.84,14.84,0,0,0,1.34-6.85,2.52,2.52,0,0,0-2.77-2.19,2.55,2.55,0,0,0-2.19,2.77,9.43,9.43,0,0,1-1,4.32,2.5,2.5,0,1,0,4.61,2Z" fill="#599b1f"></path><path d="M236.57,135.78a2.5,2.5,0,0,0,4.91,1,3.91,3.91,0,0,1,.46-1.18c-.07.12.34-.43.42-.52l.23-.24.19-.15a2.5,2.5,0,1,0-2.79-4.15A8.88,8.88,0,0,0,236.57,135.78Z" fill="#71b739"></path><path d="M225.89,135.78a11.22,11.22,0,0,0-2.54,4.62,1.9,1.9,0,0,0,1.49,2.22,1.93,1.93,0,0,0,2.22-1.49,7.13,7.13,0,0,1,1.7-2.88,1.89,1.89,0,1,0-2.87-2.47Z" fill="#599b1f"></path><path d="M214.42,151a2.57,2.57,0,0,0-.41-3.51,2.52,2.52,0,0,0-3.51.41,9.68,9.68,0,0,1-2.38,2.64,2.5,2.5,0,0,0,3,4A14.34,14.34,0,0,0,214.42,151Z" fill="#83ca50"></path><path d="M211.51,139.88a2.5,2.5,0,0,0-5,.58,3.91,3.91,0,0,1-.08,1.27c0-.13-.19.51-.24.63s-.1.2-.15.3l-.14.2a2.5,2.5,0,0,0,3.92,3.1A8.88,8.88,0,0,0,211.51,139.88Z" fill="#71b739"></path><path d="M218.38,142.66a14.84,14.84,0,0,0,1.34-6.85,2.52,2.52,0,0,0-2.77-2.19,2.55,2.55,0,0,0-2.19,2.77,9.43,9.43,0,0,1-1,4.32,2.5,2.5,0,1,0,4.61,2Z" fill="#599b1f"></path><path d="M244.91,75.51c-3.44-1.54-6.53-3.74-10-5.31-2.52-1.14-5.25-1.92-7.85-2.87L226,66.91,220.08,65a3.58,3.58,0,0,0-2.72.49c-1.41,1.14-1.32,4.42-2,6.21a77.45,77.45,0,0,0-2.95,10.34c-.51,2.49-.51,5.2-1.36,7.59s-2.45,4.36-3.51,6.63L231,106.66C237,97,239.58,85.6,244.91,75.51Z" fill="#244534"></path><path d="M199.75,105.73l0-.09,0,0Z" fill="#e2dcdf"></path><path d="M199.6,105.73l.08,0-.08,0Z" fill="#e2dcdf"></path><path d="M233,96.9a4.9,4.9,0,0,0-3.35-1.26,4.69,4.69,0,0,0-.69-1.46A6.49,6.49,0,0,0,225.83,92a5.35,5.35,0,0,0-3.71-.22l-.15.07c-1.61-2.31-4.29-4-7.16-2.94A4.48,4.48,0,0,0,213.15,90a5.65,5.65,0,0,0-5.91.16A5.22,5.22,0,0,0,205.1,93c-2.46-.16-4.8,2-5.64,4.17a6.41,6.41,0,0,0-.44,2.21,6.76,6.76,0,0,0-4.7,4.06,6.16,6.16,0,0,0,2.06,7.15c0,.08-.09.14-.13.22a4.89,4.89,0,0,0,.18,4.64,6.3,6.3,0,0,0,5.34,2.92,6.6,6.6,0,0,0,4.47,4,5.69,5.69,0,0,0,3.86-.6,4.25,4.25,0,0,0,.74-.5l.13.14c2.22,2.1,5.9,3.19,8.69,1.53a4.52,4.52,0,0,0,2.25-4.17,3.15,3.15,0,0,0,.52,0c2.19,0,5.29-.46,6.79-2.24a4.33,4.33,0,0,0,.8-3.92c0-.11-.07-.2-.11-.31a3.17,3.17,0,0,0,2.54-.95,6.17,6.17,0,0,0,1.29-6.35,2.64,2.64,0,0,0,.77-1.42C234.95,101.31,235,98.64,233,96.9Z" fill="#e2dcdf"></path><path d="M197.53,102.94l0-.09,0,0Z" fill="#f0f0f0"></path><path d="M197.38,102.94l.08,0-.08,0Z" fill="#f0f0f0"></path><path d="M230.82,94.11a4.9,4.9,0,0,0-3.35-1.26,4.69,4.69,0,0,0-.69-1.46,6.49,6.49,0,0,0-3.17-2.19A5.35,5.35,0,0,0,219.9,89l-.15.07c-1.61-2.31-4.29-4-7.16-2.94a4.48,4.48,0,0,0-1.66,1.06,5.65,5.65,0,0,0-5.91.16,5.22,5.22,0,0,0-2.14,2.9c-2.46-.16-4.8,2-5.64,4.17a6.41,6.41,0,0,0-.44,2.21,6.76,6.76,0,0,0-4.7,4.06,6.16,6.16,0,0,0,2.06,7.15c0,.08-.09.14-.13.22a4.89,4.89,0,0,0,.18,4.64,6.3,6.3,0,0,0,5.34,2.92,6.6,6.6,0,0,0,4.47,4,5.69,5.69,0,0,0,3.86-.6,4.25,4.25,0,0,0,.74-.5l.13.14c2.22,2.1,5.9,3.19,8.69,1.53a4.52,4.52,0,0,0,2.25-4.17,3.15,3.15,0,0,0,.52,0c2.19,0,5.29-.46,6.79-2.24a4.33,4.33,0,0,0,.8-3.92c0-.11-.07-.2-.11-.31a3.17,3.17,0,0,0,2.54-.95,6.17,6.17,0,0,0,1.29-6.35,2.64,2.64,0,0,0,.77-1.42C232.73,98.52,232.78,95.85,230.82,94.11Z" fill="#f0f0f0"></path><path d="M219.29,95.7c-3.75-1.56-8.78.14-11.78,2.59-2.41,2-3.95,5.71-1.79,8.45,2.53,3.22,8,2.38,11.12.6,2.89-1.65,3.91-5.59.18-7.08-2.74-1.09-8.28,1.06-5.42,4.48a.65.65,0,0,0,1.08-.16.74.74,0,0,1-.27-.32c-.8-1.9,1-3.09,2.66-3.18a1.1,1.1,0,0,1,.8,0,3,3,0,0,1,.46.11,2.55,2.55,0,0,1,1.83,2.66,3.07,3.07,0,0,1-1.35,1.78l0,.28-.67.41c-1.36,1.25-5,1.66-6.83,1.17-5.81-1.57-3.09-7.47.68-9.49,3-1.61,7.14-2.67,10.09-.44,3.17,2.39,3.31,6.77,1.35,10-3.52,5.76-13.91,7.11-18.47,2-2.47-2.75-1.58-7.24.09-10.29a12.81,12.81,0,0,1,8.82-6.18c.74-.16.37-1.28-.37-1.13a13.81,13.81,0,0,0-10.29,8.45c-1.31,3.42-1.7,8.27,1.44,10.81,6.59,5.32,19.41,2.39,21.13-6.46A8.18,8.18,0,0,0,219.29,95.7Z" fill="#e87e4f"></path><path d="M268.29,105.67c-1.79-3.32-2.91-6.95-4.71-10.3-1.31-2.44-3-4.71-4.48-7.05-.17-.27-.37-.6-.58-1L255,82.24A3.58,3.58,0,0,0,252.5,81c-1.81.05-3.73,2.7-5.32,3.74a77.45,77.45,0,0,0-8.62,6.41c-1.92,1.67-3.56,3.82-5.69,5.2s-4.6,2-6.82,3.13l12.24,22.45C249,117.91,257.93,110.44,268.29,105.67Z" fill="#244534"></path><path d="M216.25,103.87l0-.09h0A.91.91,0,0,0,216.25,103.87Z" fill="#e2dcdf"></path><path d="M216.14,103.77l.05.07,0-.07Z" fill="#e2dcdf"></path><path d="M246.91,119.55a4.9,4.9,0,0,0-1.65-3.18,4.69,4.69,0,0,0,.46-1.54,6.49,6.49,0,0,0-.9-3.75,5.35,5.35,0,0,0-2.62-2.64l-.16,0c.35-2.79-.54-5.81-3.36-7a4.48,4.48,0,0,0-1.94-.32,5.65,5.65,0,0,0-4.5-3.83,5.22,5.22,0,0,0-3.53.73c-1.73-1.76-4.89-1.75-7-.67a6.41,6.41,0,0,0-1.81,1.35,6.76,6.76,0,0,0-6.21-.12,6.16,6.16,0,0,0-3.25,6.7l-.25.08a4.89,4.89,0,0,0-3,3.57,6.3,6.3,0,0,0,2,5.75,6.6,6.6,0,0,0,.65,6,5.69,5.69,0,0,0,3.27,2.13,4.25,4.25,0,0,0,.89.12c0,.06,0,.13,0,.19.25,3,2.26,6.32,5.44,6.94a4.52,4.52,0,0,0,4.46-1.6,3.15,3.15,0,0,0,.36.38c1.64,1.44,4.24,3.19,6.55,2.87a4.33,4.33,0,0,0,3.21-2.38c0-.1.08-.2.13-.3a3.17,3.17,0,0,0,2.52,1,6.17,6.17,0,0,0,5.21-3.86,2.64,2.64,0,0,0,1.53-.54C245.39,124.1,247.21,122.15,246.91,119.55Z" fill="#e2dcdf"></path><path d="M216.46,100.31l0-.09h0A.91.91,0,0,0,216.46,100.31Z" fill="#f0f0f0"></path><path d="M216.35,100.22l.05.07,0-.07Z" fill="#f0f0f0"></path><path d="M247.13,116a4.9,4.9,0,0,0-1.65-3.18,4.69,4.69,0,0,0,.46-1.54,6.49,6.49,0,0,0-.9-3.75,5.35,5.35,0,0,0-2.62-2.64l-.16,0c.35-2.79-.54-5.81-3.36-7a4.48,4.48,0,0,0-1.94-.32,5.65,5.65,0,0,0-4.5-3.83,5.22,5.22,0,0,0-3.53.73c-1.73-1.76-4.89-1.75-7-.67a6.41,6.41,0,0,0-1.81,1.35,6.76,6.76,0,0,0-6.21-.12,6.16,6.16,0,0,0-3.25,6.7l-.25.08a4.89,4.89,0,0,0-3,3.57,6.3,6.3,0,0,0,2,5.75,6.6,6.6,0,0,0,.65,6,5.69,5.69,0,0,0,3.27,2.13,4.25,4.25,0,0,0,.89.12c0,.06,0,.13,0,.19.25,3,2.26,6.32,5.44,6.94a4.52,4.52,0,0,0,4.46-1.6,3.15,3.15,0,0,0,.36.38c1.64,1.44,4.24,3.19,6.55,2.87a4.33,4.33,0,0,0,3.21-2.38c0-.1.08-.2.13-.3a3.17,3.17,0,0,0,2.52,1,6.17,6.17,0,0,0,5.21-3.86,2.64,2.64,0,0,0,1.53-.54C245.6,120.55,247.42,118.59,247.13,116Z" fill="#f0f0f0"></path><path d="M237.49,109.47c-1.75-3.67-6.63-5.77-10.49-5.95-3.11-.15-6.75,1.61-7,5.09-.27,4.09,4.37,7.12,7.87,7.88,3.25.7,6.65-1.55,4.86-5.14-1.31-2.64-6.87-4.74-7-.29a.65.65,0,0,0,.91.6.74.74,0,0,1,0-.42c.67-1.94,2.77-1.66,4.1-.59a1.1,1.1,0,0,1,.57.57,3,3,0,0,1,.27.39,2.55,2.55,0,0,1-.42,3.2,3.07,3.07,0,0,1-2.19.42l-.15.24-.77-.14c-1.85,0-4.85-2.12-5.86-3.69-3.28-5.05,2.69-7.62,6.85-6.61,3.32.81,7.1,2.79,7.8,6.42.76,3.9-2.06,7.25-5.66,8.33-6.47,1.93-15.1-4-15.09-10.83,0-3.69,3.66-6.44,6.94-7.59a12.81,12.81,0,0,1,10.69,1.3c.66.38,1.13-.7.48-1.08a13.81,13.81,0,0,0-13.3-.59c-3.26,1.67-6.79,5-6.15,9,1.35,8.37,12.84,14.75,20,9.31A8.18,8.18,0,0,0,237.49,109.47Z" fill="#e87e4f"></path><polyline points="292.7 160.87 292.7 175.01 319.78 190.57 334.53 181.68 334.53 171.38" fill="#e8b480"></polyline><path d="M292.7,160.87s7.28,7.88,15,12.13a55.84,55.84,0,0,0,12.93,5.46l13.94-7.07s-21.42-9.09-27.89-18Z" fill="#efd1af"></path><polygon points="319.78 190.57 319.78 178.45 334.53 171.38 334.53 181.68 319.78 190.57" fill="#d19865"></polygon><path d="M319.77,163.05s4.44-2.25,2.68-4.13c-1.13-1.2-3.68,0-3.68,0S185.47,238.41,185,240.21a10,10,0,0,0,.32,4.48l6.51.9Z" fill="#262f2a"></path><path d="M326.29,167.53s4.22-2.64,2.3-4.35c-1.23-1.1-3.67.34-3.67.34S199.41,254.8,199.08,256.63a10,10,0,0,0,.73,4.43l6.56.3Z" fill="#262f2a"></path></svg>