<svg id="Layer_1" data-name="Layer 1" xmlns="http://www.w3.org/2000/svg" viewBox="0 0 400 300" width="406" height="306" class="illustration styles_illustrationTablet__1DWOa"><polygon points="289.14 94.62 285.49 97.4 288.05 100.77 288.89 100.13 298.38 112.59 300.4 111.05 290.91 98.59 291.7 97.98 289.14 94.62" fill="#24285b"></polygon><path d="M224,158.48s31.38,42.88,57.74,36.84,20.46-74,20.46-74,8.57-12,0-17.71-10.45,15.26-10.45,15.26.62,34.85-13.91,39.93-12.45-55.21-65.26-60.16S224,158.48,224,158.48Z" fill="#f4a28c"></path><path d="M224,158.48s31.38,42.88,57.74,36.84,20.46-74,20.46-74,8.57-12,0-17.71-10.45,15.26-10.45,15.26.62,34.85-13.91,39.93-12.45-55.21-65.26-60.16S224,158.48,224,158.48Z" opacity="0.06"></path><path d="M193.21,65.28S195,76.63,186,81.39s-17.62.76-23.3,10.42,10.82,27.29,29.73,4.37S201.3,63,193.21,65.28Z" fill="#24285b"></path><polygon points="196.3 64.8 192.14 98.36 208.89 100.84 204.24 75 196.3 64.8" fill="#f4a28c"></polygon><path d="M205.11,79.56a37.11,37.11,0,0,1-8.75-2.41A15.89,15.89,0,0,0,206.77,89Z" fill="#ce8172" opacity="0.31"></path><path d="M207.9,59.62s4.57,9.74,5.34,17a5.39,5.39,0,0,1-4.84,5.93c-3.69.33-8.77-.29-11.85-5.2l-6.26-7.7s-3.75-5,.43-11.15S205.41,53.56,207.9,59.62Z" fill="#f4a28c"></path><path d="M210.47,65.9l4.24,2.85a1.73,1.73,0,0,1-.08,2.91L211,73.81Z" fill="#f4a28c"></path><path d="M205.31,55.06s8.31,8.37-4.95,17.15l-6.9,8.53s-8.37-6-10.5-14.28S194.16,42.15,205.31,55.06Z" fill="#24285b"></path><path d="M200.36,72.21s-1.51-3.86-4.31-2.49-.67,7,3.49,6Z" fill="#f4a28c"></path><path d="M188.86,96.76s-45.57-3.4-50,32.18,25,80.65,25,80.65l70.21-4.42s35.65-23.83,24.21-58.29-24.69-38.34-49.84-50.21Z" fill="#000"></path><path d="M176.65,112.5s8.8,6.71,7.68,33.64-3.45,36.22,8.48,44.48S222,181.56,222,181.56l4.11-7.75h17l-15.28,31.75-64,4-9.38-19-6.16-9.9s14.56-38.64,15.12-38.82S176.65,112.5,176.65,112.5Z" opacity="0.05"></path><path d="M200.48,165.73s1.4-13.43,6.16-14.69,4.9,4.67,4.9,4.67-.84-9.43,2.8-9.57,5.6,4.9,5.6,4.9,1.12-6.14,6.3-3.91S221.62,159,221.62,159s7.19-2.71,6.13,3.22-22.46,7.84-22.46,7.84Z" fill="#24285b"></path><path d="M197.22,170.08s8.93-.18,12.3-5.22,2.82-12.44,7.11-11.73-.37,4.63,2.61,9.49,5.6-4.3,9.52-3.74,10.64,6.91-1.68,12.7S197.22,170.08,197.22,170.08Z" fill="#ffd200"></path><path d="M180.65,176.05s-9.06-7.85-5-14.75,7.28,6.72,10.83,1.49,5.18-8.85,9.22-3.49-1.19,12.26,9.54,14.13l-23.8,2.62Z" fill="#fff" opacity="0.27"></path><path d="M196.39,163.65a33,33,0,0,0-10.4-20.6s4.07,11.2.58,22.23Z" fill="#000"></path><path d="M196.39,163.65a33,33,0,0,0-10.4-20.6s4.07,11.2.58,22.23Z" fill="#fff"></path><path d="M185.86,174.11s-7.11-13-2.34-15.66,5.1,8.94,9.22,2.78,9.54-11.95,12.53-6-1.68,11.68,5,8.18,18.86-5,16.62,4S200.05,183.82,185.86,174.11Z" fill="#000"></path><path d="M185.86,174.11s-7.11-13-2.34-15.66,5.1,8.94,9.22,2.78,9.54-11.95,12.53-6-1.68,11.68,5,8.18,18.86-5,16.62,4S200.05,183.82,185.86,174.11Z" opacity="0.05"></path><polygon points="172.01 170.08 183.14 193.04 219.59 191.55 233.24 170.08 172.01 170.08" fill="#24285b"></polygon><path d="M165.66,99.46s-52.37,16.54-56.4,75.66a34.37,34.37,0,0,0,36.36,36.77c18.1-1.13,41-4.45,61.57-13.07,0,0,13.92-.24,16.46-7.74s-7.83-8.46-16.46-4c0,0-24.52,5.92-43.84,5.7a9.38,9.38,0,0,1-7.8-14.41C169.09,157.05,192.28,113.48,165.66,99.46Z" fill="#f4a28c"></path><path d="M281.39,100.8l14-7.79s-3.24-5.32-9.11-4.48S278.15,94.61,281.39,100.8Z" fill="#ffd200"></path><polygon points="163.85 209.59 234.06 205.17 243.14 260.53 154.96 260.53 163.85 209.59" fill="#24285b"></polygon></svg>