<svg id="Layer_1" data-name="Layer 1" xmlns="http://www.w3.org/2000/svg" xmlns:xlink="http://www.w3.org/1999/xlink" viewBox="0 0 360.5 278.25" width="406" height="306" class="illustration styles_illustrationTablet__1DWOa"><defs><linearGradient id="linear-gradient" x1="170.25" y1="166.18" x2="169.68" y2="118.59" gradientUnits="userSpaceOnUse"><stop offset="0.01"></stop><stop offset="0.13" stop-opacity="0.69"></stop><stop offset="1" stop-opacity="0"></stop></linearGradient><linearGradient id="linear-gradient-2" x1="228.45" y1="155.02" x2="229.58" y2="127.71" xlink:href="#linear-gradient"></linearGradient><linearGradient id="linear-gradient-3" x1="243.41" y1="126.38" x2="243.04" y2="113.15" xlink:href="#linear-gradient"></linearGradient><linearGradient id="linear-gradient-4" x1="223.5" y1="126.95" x2="223.12" y2="113.71" xlink:href="#linear-gradient"></linearGradient><linearGradient id="linear-gradient-5" x1="211.51" y1="132.52" x2="256.16" y2="132.52" xlink:href="#linear-gradient"></linearGradient><linearGradient id="linear-gradient-6" x1="287.51" y1="207.41" x2="282.16" y2="68.88" xlink:href="#linear-gradient"></linearGradient><linearGradient id="linear-gradient-7" x1="65.73" y1="219.96" x2="80.93" y2="-37.67" xlink:href="#linear-gradient"></linearGradient><linearGradient id="linear-gradient-8" x1="237.5" y1="167.15" x2="326.08" y2="137.9" gradientUnits="userSpaceOnUse"><stop offset="0.01"></stop><stop offset="0.13" stop-opacity="0.69"></stop><stop offset="0.77" stop-opacity="0.16"></stop><stop offset="1" stop-opacity="0"></stop></linearGradient><linearGradient id="linear-gradient-9" x1="1243" y1="108.71" x2="1253.94" y2="108.71" gradientTransform="matrix(-1, 0, 0, 1, 1379.8, 0)" xlink:href="#linear-gradient"></linearGradient><linearGradient id="linear-gradient-10" x1="1156.52" y1="33.28" x2="1159.43" y2="179.45" gradientTransform="matrix(-1, 0, 0, 1, 1379.8, 0)" xlink:href="#linear-gradient"></linearGradient></defs><title>8</title><path d="M194.37,43.55l-1.2-.33c-8.91-2.47-17.74-5.35-26.9-6.68-36.66-5.32-72.91,15.38-97.64,43C49,101.42,34.51,128.28,29.11,157.19c-5.35,28.64-1.48,58.33,12.89,83.64C53.69,261.41,58.82,286,80.53,299.58c16.11,10.07,36.11,11,55.1,11.55l76.3,2.37c21.68.67,43.87,1.33,65.13-3.67,11.26-2.65,18.05-5.63,29.66-5.11,11.2.5,22.39.7,33.46-1.42,15.31-2.92,30.38-10.57,38.87-23.64,9-13.83,9.41-31.54,7-47.86s-7.25-32.31-7.81-48.79c-.64-18.41,4.12-36.53,6-54.86s.24-38.27-11.23-52.69c-10.12-12.72-26.46-19.09-42.59-21.16s-32.46-.41-48.71,0A305.85,305.85,0,0,1,194.37,43.55Z" transform="translate(-26.81 -35.7)" fill="#68e1fd" opacity="0.18" style="isolation: isolate;"></path><path d="M162.67,223.85l1,4.32a15.13,15.13,0,0,0,1.21,3.68,12.9,12.9,0,0,0,4.5,4.4c2.79,1.86,6,3.44,9.31,3.33a1.52,1.52,0,0,0,1.75-1.78c.18-5.73-5.66-7.39-6-13-.2-3.17-.41-6.35-.62-9.52-.26-3.82-1.71-11-5.91-12.46-9.33-3.28-7.44,11.67-6.4,16.08Z" transform="translate(-26.81 -35.7)" fill="#e4a98a"></path><path d="M178,220.14l.2.34a6.13,6.13,0,0,1,1.09,3.91,12.32,12.32,0,0,0,.24,4.45c.67,2,2.55,3.22,4.38,4.19a21.05,21.05,0,0,0,10.34,2.87,3.43,3.43,0,0,0,1.55-.33,3.78,3.78,0,0,0,1.46-2.39,2.1,2.1,0,0,0,.13-.89,2,2,0,0,0-.53-.95c-1.53-1.72-3.57-2.88-5.33-4.36a7.91,7.91,0,0,1-3.22-6c-.08-3-.39-6-.59-9-.32-4.74-3.6-16.75-10.76-11.37-4.35,3.26-3,9-1.43,13.41A41.28,41.28,0,0,0,178,220.14Z" transform="translate(-26.81 -35.7)" fill="#e4a98a"></path><path d="M242.81,216.69l-.47,4.37a17.14,17.14,0,0,1-.69,3.75,11.93,11.93,0,0,1-3.3,4.69c-2.13,2-4.59,3.83-7.33,3.95a1.39,1.39,0,0,1-1.06-.28,2.2,2.2,0,0,1-.51-1.38c-.63-5.69,4-7.74,3.83-13.35q-.15-4.77-.28-9.54c-.11-3.82.48-11.06,3.79-12.82,7.35-3.9,7,11.13,6.56,15.59Z" transform="translate(-26.81 -35.7)" fill="#e4a98a"></path><path d="M230,214l-.14.35a7.13,7.13,0,0,0-.56,4,15.14,15.14,0,0,1,.17,4.45,7.73,7.73,0,0,1-3.23,4.48c-2.47,1.91-5.24,3.42-8.21,3.56a2.28,2.28,0,0,1-1.28-.22,4,4,0,0,1-1.39-2.29,2.39,2.39,0,0,1-.19-.87,2.27,2.27,0,0,1,.36-1c1.1-1.81,2.68-3.11,4-4.71a8.56,8.56,0,0,0,2.13-6.25c-.19-3-.18-6-.27-9-.13-4.75,1.55-16.94,7.84-12.07,3.82,3,3.22,8.81,2.28,13.28A46.76,46.76,0,0,1,230,214Z" transform="translate(-26.81 -35.7)" fill="#e4a98a"></path><path d="M162.45,111.78a47.57,47.57,0,0,1,9.69-.1A18,18,0,0,1,181,115a19.71,19.71,0,0,1,4.44,5.16,53.74,53.74,0,0,1,4.08,7.86c2.12,4.95,3.7,10.29,3,15.59a.52.52,0,0,1-.12.34.67.67,0,0,1-.42.12c-11.51.51-23,.3-34.54.75-6.41.25-13,.69-19.1-1.13a38.31,38.31,0,0,0,2.19-8.72c.43-3.44.41-7,1.91-10.19a21.13,21.13,0,0,1,4.12-5.43,27.19,27.19,0,0,1,5.22-4.46,12.94,12.94,0,0,1,5.4-1.93C159,112.76,160.56,111.94,162.45,111.78Z" transform="translate(-26.81 -35.7)" fill="#68e1fd"></path><path d="M177.39,129.28a17.19,17.19,0,0,0-3.17,8.84A14.69,14.69,0,0,0,168,137a7.38,7.38,0,0,1-3.54-.34,5.87,5.87,0,0,1-1.61-1.41l-4.15-4.63c-1.22-1.36-2.93-2.86-4.64-2.2a4.19,4.19,0,0,0-2,2.13,25.67,25.67,0,0,0-2.95,13.42,37.44,37.44,0,0,0,8.18,1c10.1.46,20.22.52,30.33.55a4.47,4.47,0,0,0,2.41-.45c2.86-1.79-3.78-5.89-5-7.08A71.05,71.05,0,0,1,177.39,129.28Z" transform="translate(-26.81 -35.7)" fill="url(#linear-gradient)"></path><path d="M178.87,104.46a11.12,11.12,0,0,1-2.13,3.62,10.49,10.49,0,0,1-3.48,2.27,10.71,10.71,0,0,1-3.77,1,9.51,9.51,0,0,1-6.92-3,25.69,25.69,0,0,1-4.23-6.2c-.06.36-.58.52-.94.36a1.67,1.67,0,0,1-.73-.84,8.89,8.89,0,0,1-.92-3.67,1.5,1.5,0,0,1,.14-.81c.45-.79,1.71-.52,2.57-.14.72-1.37.57-3,1.1-4.45,1-2.76,4.16-4.18,7-5.31A25.28,25.28,0,0,1,175,85.08a5.18,5.18,0,0,1,2.35.35,5.77,5.77,0,0,1,1.78,1.44A8.47,8.47,0,0,1,181.6,91a12.53,12.53,0,0,1-.41,3.32A37.55,37.55,0,0,1,178.87,104.46Z" transform="translate(-26.81 -35.7)" fill="#e4a98a"></path><path d="M163.52,114.62a4.73,4.73,0,0,0,.38,2.84c.81,1.33,2.72,1.67,4.33,1.46a5.61,5.61,0,0,0,2.52-.86,4.72,4.72,0,0,0,1.75-2.68,13,13,0,0,0,.33-3.17l.09-4a.38.38,0,0,0-.08-.3.48.48,0,0,0-.29-.07l-4.32,0c-.93,0-2.94-.37-3.73.19C163.21,109,163.52,113.24,163.52,114.62Z" transform="translate(-26.81 -35.7)" fill="#e4a98a"></path><path d="M156,97.8a3.48,3.48,0,0,0-.84.87,1.17,1.17,0,0,1-1.08.47,1.27,1.27,0,0,1-.71-.66,7.79,7.79,0,0,1-1.29-4.3,4.22,4.22,0,0,1,2.38-3.67c.19-.08.4-.16.47-.35s-.05-.35-.14-.51a8.49,8.49,0,0,1-1.21-4.35,2.82,2.82,0,0,1,.34-1.51,3.68,3.68,0,0,1,2.7-1.27c1.48-.21,3.26-.18,4.11,1a3.26,3.26,0,0,1,1-1.73,1.82,1.82,0,0,1,2-.23,6.85,6.85,0,0,1,4.75-3.47,5.76,5.76,0,0,1,3,.09c1.6.55,2.65,2,3.59,3.32a4.2,4.2,0,0,1,5.08,1.67,2,2,0,0,0,.42.62,2.3,2.3,0,0,0,1.55.25,4.23,4.23,0,0,1,4,2.7,3.87,3.87,0,0,1-1.54,4.37,5.55,5.55,0,0,0-1.62,1.18c-.25.36-.33.81-.61,1.15a2.54,2.54,0,0,1-1.85.7,8.81,8.81,0,0,1-7.56-3.61c-.2-.29-.46-.63-.83-.62a1.14,1.14,0,0,0-.52.22,4.79,4.79,0,0,1-5.27-.36c-.51-.4-1.06-1-1.71-.82-1.13.25-.79,2.14-1.83,2.64a1.51,1.51,0,0,0-.4.21.73.73,0,0,0-.15.5,14.93,14.93,0,0,1,0,2.59,9,9,0,0,1-2.47,4C158.4,100.24,156.77,98.94,156,97.8Z" transform="translate(-26.81 -35.7)" fill="#3e3e52"></path><path d="M232.09,111.78a47.46,47.46,0,0,0-9.68-.1A18.08,18.08,0,0,0,213.5,115a19.86,19.86,0,0,0-4.43,5.16A52.78,52.78,0,0,0,205,128c-2.12,4.95-3.7,10.29-3,15.59a.59.59,0,0,0,.13.34.67.67,0,0,0,.42.12c11.5.51,23,.3,34.53.75,6.41.25,13,.69,19.11-1.13A37.8,37.8,0,0,1,254,135c-.43-3.44-.41-7-1.92-10.19a20.87,20.87,0,0,0-4.11-5.43,27.55,27.55,0,0,0-5.23-4.46,12.85,12.85,0,0,0-5.39-1.93C235.51,112.76,234,111.94,232.09,111.78Z" transform="translate(-26.81 -35.7)" fill="#68e1fd"></path><path d="M232.09,111.78a47.46,47.46,0,0,0-9.68-.1A18.08,18.08,0,0,0,213.5,115a19.86,19.86,0,0,0-4.43,5.16A52.78,52.78,0,0,0,205,128c-2.12,4.95-3.7,10.29-3,15.59a.59.59,0,0,0,.13.34.67.67,0,0,0,.42.12c11.5.51,23,.3,34.53.75,6.41.25,13,.69,19.11-1.13A37.8,37.8,0,0,1,254,135c-.43-3.44-.41-7-1.92-10.19a20.87,20.87,0,0,0-4.11-5.43,27.55,27.55,0,0,0-5.23-4.46,12.85,12.85,0,0,0-5.39-1.93C235.51,112.76,234,111.94,232.09,111.78Z" transform="translate(-26.81 -35.7)" fill="url(#linear-gradient-2)"></path><path d="M215.67,104.46a11.33,11.33,0,0,0,2.14,3.62,10.54,10.54,0,0,0,3.47,2.27,10.77,10.77,0,0,0,3.77,1,9.53,9.53,0,0,0,6.93-3,25.69,25.69,0,0,0,4.23-6.2c.06.36.58.52.93.36a1.65,1.65,0,0,0,.74-.84A9,9,0,0,0,238.8,98a1.72,1.72,0,0,0-.14-.81c-.45-.79-1.71-.52-2.57-.14-.73-1.37-.57-3-1.1-4.45-1-2.76-4.16-4.18-7-5.31a25.28,25.28,0,0,0-8.41-2.24,5.18,5.18,0,0,0-2.35.35,5.77,5.77,0,0,0-1.78,1.44A8.39,8.39,0,0,0,213,91a12.53,12.53,0,0,0,.41,3.32A37.91,37.91,0,0,0,215.67,104.46Z" transform="translate(-26.81 -35.7)" fill="#e4a98a"></path><path d="M211.12,83.87a14.55,14.55,0,0,0-1.23,6.7,17.25,17.25,0,0,0,.74,5.45c.55,1.61,1.47,3.11,1.68,4.79.36,2.93-1.5,5.73-1.4,8.68a3.53,3.53,0,0,0,.73,2.22c1.08,1.27,3.08,1.08,4.69.64a1.62,1.62,0,0,0,.83-.43,1.68,1.68,0,0,0,.16-1.43l-2.61-13.55a2.58,2.58,0,0,1,0-1.17,2.86,2.86,0,0,1,.73-1,10.24,10.24,0,0,0,2.54-7.91,5.45,5.45,0,0,0,3.53,3.07,13.76,13.76,0,0,0,4.79.45l3.88,5.85a1.84,1.84,0,0,0,.61.66c.91.53,2.08-.61,3.06-.24a4.52,4.52,0,0,1,.83,3.75c-.2,1.31-.72,2.55-1,3.85a11.15,11.15,0,0,0,.29,5.87,2.7,2.7,0,0,0,.91,1.45,3.09,3.09,0,0,0,1.3.4l8.4,1.23.06-10.77a46.42,46.42,0,0,0-.47-8.34,10.37,10.37,0,0,0-2.71-5.83,28.82,28.82,0,0,0-2.89-2.1c-1.85-1.36-3.31-3.2-5.2-4.5-3.83-2.62-8.6-2.49-13-1.77C216.57,80.46,213.2,79.76,211.12,83.87Z" transform="translate(-26.81 -35.7)" fill="#3e3e52"></path><path d="M231,114.62a4.73,4.73,0,0,1-.38,2.84c-.81,1.33-2.72,1.67-4.33,1.46a5.61,5.61,0,0,1-2.52-.86,4.72,4.72,0,0,1-1.75-2.68,13,13,0,0,1-.33-3.17l-.09-4a.38.38,0,0,1,.08-.3.48.48,0,0,1,.29-.07l4.32,0c.93,0,2.94-.37,3.73.19C231.34,109,231,113.24,231,114.62Z" transform="translate(-26.81 -35.7)" fill="#e4a98a"></path><path d="M236,113.85c.62-.23,1.49.21,1.4.86a8.62,8.62,0,0,0,1.24-2.27,3.27,3.27,0,0,1,1.73-1.86c.82-.27,1.93.27,1.91,1.14a29.67,29.67,0,0,1,3.59-6.36,10,10,0,0,1,6.06-3.8c1,1.26.44,3.07-.22,4.52a33.38,33.38,0,0,1-4,6.64c1-.37,2.28-.67,3,.13a1.77,1.77,0,0,1,0,2.05,5.1,5.1,0,0,1-1.62,1.44c1.06-.09,1.8,1.24,1.49,2.26a3.78,3.78,0,0,1-2.25,2.12,14.07,14.07,0,0,0-2.88,1.36c-.37.29-.7.64-1.09.91-2.19,1.45-7.88,1.24-9.85-.67S233.58,114.78,236,113.85Z" transform="translate(-26.81 -35.7)" fill="#68e1fd"></path><path d="M214.23,118.46c-.18-1.8,1.73-3.57,3.44-3l-2.5-4.54c-.38-.67-.6-1.78.14-2,.55-.17,1.27.38,1.65,0a.91.91,0,0,0,.17-.59,25.67,25.67,0,0,1,.15-3.62,4.26,4.26,0,0,1,1.83-3,1,1,0,0,1,.78-.16c.34.11.5.48.62.82l3.18,8.76c.8-.64,1-1.85,1.86-2.41,1.07-.7,2.62.1,3.11,1.29a5.47,5.47,0,0,1-.21,3.75,8.11,8.11,0,0,1,3.68-1.12,47.66,47.66,0,0,1-1.13,7.5.81.81,0,0,1-.88.76C226.82,121.29,214.77,124,214.23,118.46Z" transform="translate(-26.81 -35.7)" fill="#68e1fd"></path><path d="M236,113.85c.62-.23,1.49.21,1.4.86a8.62,8.62,0,0,0,1.24-2.27,3.27,3.27,0,0,1,1.73-1.86c.82-.27,1.93.27,1.91,1.14a29.67,29.67,0,0,1,3.59-6.36,10,10,0,0,1,6.06-3.8c1,1.26.44,3.07-.22,4.52a33.38,33.38,0,0,1-4,6.64c1-.37,2.28-.67,3,.13a1.77,1.77,0,0,1,0,2.05,5.1,5.1,0,0,1-1.62,1.44c1.06-.09,1.8,1.24,1.49,2.26a3.78,3.78,0,0,1-2.25,2.12,14.07,14.07,0,0,0-2.88,1.36c-.37.29-.7.64-1.09.91-2.19,1.45-7.88,1.24-9.85-.67S233.58,114.78,236,113.85Z" transform="translate(-26.81 -35.7)" fill="url(#linear-gradient-3)"></path><path d="M214.23,118.46c-.18-1.8,1.73-3.57,3.44-3l-2.5-4.54c-.38-.67-.6-1.78.14-2,.55-.17,1.27.38,1.65,0a.91.91,0,0,0,.17-.59,25.67,25.67,0,0,1,.15-3.62,4.26,4.26,0,0,1,1.83-3,1,1,0,0,1,.78-.16c.34.11.5.48.62.82l3.18,8.76c.8-.64,1-1.85,1.86-2.41,1.07-.7,2.62.1,3.11,1.29a5.47,5.47,0,0,1-.21,3.75,8.11,8.11,0,0,1,3.68-1.12,47.66,47.66,0,0,1-1.13,7.5.81.81,0,0,1-.88.76C226.82,121.29,214.77,124,214.23,118.46Z" transform="translate(-26.81 -35.7)" fill="url(#linear-gradient-4)"></path><path d="M252,120.61a30.93,30.93,0,0,1,3.84.58,20.17,20.17,0,0,1-3.06,14.56c-5,7.46-15.19,10.82-23.82,8.95a20.83,20.83,0,0,1-12.06-8,26.76,26.76,0,0,1-3.78-7.22c-.57-1.65-2.31-5.82-1.33-7.48s5.37-1.62,7.06-1.79a92.94,92.94,0,0,1,9.29-.34q10.16,0,20.29.54C249.64,120.43,250.84,120.5,252,120.61Z" transform="translate(-26.81 -35.7)" fill="#68e1fd"></path><path d="M252,120.61a30.93,30.93,0,0,1,3.84.58,20.17,20.17,0,0,1-3.06,14.56c-5,7.46-15.19,10.82-23.82,8.95a20.83,20.83,0,0,1-12.06-8,26.76,26.76,0,0,1-3.78-7.22c-.57-1.65-2.31-5.82-1.33-7.48s5.37-1.62,7.06-1.79a92.94,92.94,0,0,1,9.29-.34q10.16,0,20.29.54C249.64,120.43,250.84,120.5,252,120.61Z" transform="translate(-26.81 -35.7)" fill="url(#linear-gradient-5)"></path><ellipse cx="188.36" cy="214.42" rx="170.8" ry="21.63" fill="#68e1fd" opacity="0.18" style="isolation: isolate;"></ellipse><path d="M253.44,248.58a1.65,1.65,0,0,1-.79-.19c-.76-.48-.31-1.67.28-2.35a25.27,25.27,0,0,1,4.48-3.83l6.24-4.53a8,8,0,0,1,1.79-1.08,7.77,7.77,0,0,1,2.5-.37l5.39-.23a2.31,2.31,0,0,1,1.14.14,2.08,2.08,0,0,1,.89,1.08,16.36,16.36,0,0,1,1.21,6.05,5.22,5.22,0,0,1-.38,2.69c-.73,1.34-2.7,1.41-4,1.63-2.1.35-4.2.65-6.31.85A76.88,76.88,0,0,1,253.44,248.58Z" transform="translate(-26.81 -35.7)" fill="#68e1fd"></path><polygon points="315.71 69.11 311.58 214.53 304.26 214.53 304.26 167.52 261.57 167.52 261.57 214.53 254.25 214.53 254.25 160.31 305.57 159.63 307.12 69.11 315.71 69.11" fill="#68e1fd"></polygon><polygon points="39.6 69.11 43.73 214.53 51.05 214.53 51.05 167.52 93.74 167.52 93.74 214.53 101.07 214.53 101.07 160.31 49.74 159.63 48.2 69.11 39.6 69.11" fill="#68e1fd"></polygon><polygon points="315.71 69.11 311.58 214.53 304.26 214.53 304.26 167.52 261.57 167.52 261.57 214.53 254.25 214.53 254.25 160.31 305.57 159.63 307.12 69.11 315.71 69.11" fill="url(#linear-gradient-6)"></polygon><polygon points="39.6 69.11 43.73 214.53 51.05 214.53 51.05 167.52 93.74 167.52 93.74 214.53 101.07 214.53 101.07 160.31 49.74 159.63 48.2 69.11 39.6 69.11" fill="url(#linear-gradient-7)"></polygon><path d="M331.89,181.17c.58.33-.57,4.07-.71,4.48a12.85,12.85,0,0,1-7.16,7.42c-6.15,2.72-13.59,1.59-20.11,2q-13.89.87-27.79,1.24.35,22.19.48,44.37A31,31,0,0,1,265.91,237a4.07,4.07,0,0,1-1.48-1.21,4.3,4.3,0,0,1-.5-1.77l-2-14.53c-1.11-8.12-2.21-16.3-1.69-24.47a34.79,34.79,0,0,0-1.3-13.68c-.65-2.17-.61-3.23,1-4.86,2.87-2.89,8.24-3.89,12-4.78,10.22-2.4,20.82-3.39,31.28-4.09,1.23-.08,2.46-.16,3.69-.21Z" transform="translate(-26.81 -35.7)" fill="#3e3e52"></path><path d="M272.83,71.15c.54,2.75,1,5.73-.27,8.24-.39.79-.94,1.71-.51,2.48a2.94,2.94,0,0,0,1.11.88c2.16,1.27,3.33,3.65,4.57,5.83s2.86,4.42,5.29,5,5.05-.76,7.59-.55c2.95.23,5.31,2.46,7.24,4.71a1.61,1.61,0,0,0,1,.7,1.59,1.59,0,0,0,.91-.35,45,45,0,0,0,7.16-5.82,1.07,1.07,0,0,0,.36-.56,1.1,1.1,0,0,0-.24-.72c-4.25-7-4.31-15.64-5.64-23.72-.68-4.07-1.78-8.24-4.48-11.36-4-4.6-10.78-5.94-16.77-4.84a8.16,8.16,0,0,0-3.49,1.33,9.52,9.52,0,0,0-2.23,2.87C271.54,60.22,271.73,65.63,272.83,71.15Z" transform="translate(-26.81 -35.7)" fill="#e4a98a"></path><path d="M290.56,78.69c-3.83,1.46-8.09,1.24-12.05,2.3a4.49,4.49,0,0,0-2.66,1.53,4.31,4.31,0,0,0-.36,3.28,28.63,28.63,0,0,0,1.38,4.39c.84,2.22,1.8,4.61,3.82,5.86a9.49,9.49,0,0,0,4,1.12,10.64,10.64,0,0,0,6.37-.88c2-1.13,3.22-3.24,4.33-5.25l4.05-7.29c1.18-2.14,2.41-4.54,1.81-6.91s-2.24-4.16-4.4-2.46S293.11,77.72,290.56,78.69Z" transform="translate(-26.81 -35.7)" fill="#3e3e52"></path><path d="M322.84,98.74a65.32,65.32,0,0,1,11.08,35.57c.11,6-1.11,11-.49,17.05a115.35,115.35,0,0,1,.54,22.06,27,27,0,0,1-1.74,8.06,16.64,16.64,0,0,1-11.91,9.69c-11.77,2.32-23.05-8.65-27.7-18.32a16.31,16.31,0,0,1-1.93-7.12c0-3,1.32-5.8,2.31-8.62,2.2-6.22,2.11-12.09,2.38-18.48s.92-12.87.91-19.37c0-4.59-.14-9.22.74-13.72s2.88-9,6.42-11.88C311,87.42,318.14,91.88,322.84,98.74Z" transform="translate(-26.81 -35.7)" fill="#68e1fd"></path><path d="M324.25,99.66a54.88,54.88,0,0,1,4,6.79c5.06,10,6.38,21.48,6.27,32.69s-1.58,22.35-1.77,33.56a30.38,30.38,0,0,1-.85,8.47,14.81,14.81,0,0,1-9.3,9.41c-12.26,4.18-23.38-7-28.24-17a16.34,16.34,0,0,1-1.93-7.12c0-3,1.32-5.8,2.32-8.62,2.19-6.22,2.1-12.1,2.37-18.49S298,126.46,298,120c0-4.59-.13-9.22.75-13.72s2.88-8.95,6.41-11.88C313.05,87.84,319.64,93.06,324.25,99.66Z" transform="translate(-26.81 -35.7)" fill="url(#linear-gradient-8)"></path><path d="M316.4,135.07c-1.14,3.69-2.48,6.71-7.19,8.91-4.14,1.92-8.82,2.28-13.38,2.44-5.43.19-10.81,0-16.27-.18a5.55,5.55,0,0,1-2.11-.36,5.44,5.44,0,0,1-1.84-1.7,17.1,17.1,0,0,1-2.81-4.44,6.06,6.06,0,0,1,.13-5.1,6.19,6.19,0,0,1,4.3-2.74,20.87,20.87,0,0,1,5.24-.06q4.44.28,8.88.17c2.07-.06,5.81.44,7.53-.94a4.91,4.91,0,0,0,1.26-2l6.27-14.64c1.4-3.26,2.28-7.12,4.92-9.66,4.75-4.59,9.48-1.31,10.27,4.53,1.06,7.72-1.26,14-3.75,21C317.27,132,316.85,133.6,316.4,135.07Z" transform="translate(-26.81 -35.7)" fill="#68e1fd"></path><path d="M282.31,84.43a10.12,10.12,0,0,1,.46,2.49c0,.47,0,1-.42,1.28a1,1,0,0,1-1,0,2.77,2.77,0,0,1-.73-.72c-.41-.53-1.65-1.63-1.18-2.37C279.66,84.73,282.22,84.16,282.31,84.43Z" transform="translate(-26.81 -35.7)" fill="#fff"></path><path d="M271.12,44A5.56,5.56,0,0,0,267.63,47a4.19,4.19,0,0,0,1.15,4.18,7.17,7.17,0,0,0,4.09,1.87,5.43,5.43,0,0,0-.38,2.21A1.88,1.88,0,0,0,273.78,57a2.6,2.6,0,0,0,1.42-.2,31.5,31.5,0,0,0,4.94-2.17,4.37,4.37,0,0,1,2-.72,5,5,0,0,1,1.79.55,10.81,10.81,0,0,0,4.59.83,6.74,6.74,0,0,1,1.68,0c1.79.37,2.62,2.41,3.16,4.16L296,68.06a33,33,0,0,1,3.08-4.27,5.26,5.26,0,0,1-.62,8.27c-.23.15-.49.31-.55.58a1.07,1.07,0,0,0,.05.5l3.28,11.2a5.09,5.09,0,0,1,2.66-.72c2.32-1.78,3.09-4.86,3.94-7.66a59.4,59.4,0,0,1,4.19-10.26c.72-1.37,1.51-2.91,1.06-4.38-.57-1.84-2.93-2.93-2.92-4.86a5.36,5.36,0,0,1,.62-2c.81-1.89,1.1-4.2,0-5.95a7.36,7.36,0,0,0-2.26-2.11,24.48,24.48,0,0,0-6.81-3.18c.82-1.71-.56-3.68-2.09-4.8A14.89,14.89,0,0,0,289,35.87a19,19,0,0,0-10,4.7c-1.05.93-2.46,1-3.68,1.64A42.72,42.72,0,0,1,271.12,44Z" transform="translate(-26.81 -35.7)" fill="#3e3e52"></path><path d="M131.14,193.37q7.2,14.16,14.82,28.11c4.44,8.13,7.95,16.56,17.13,20.21a10,10,0,0,1,3.47,1.83c.93.92,1.32,2.57.43,3.54-.75.82-2,.81-3.13.74l-12.28-.74a9.12,9.12,0,0,1-3.56-.71c-2-1-3-3.34-3.9-5.43-2.83-6.47-8-11.36-11-17.51a118.08,118.08,0,0,0-9.58-16.51c-5.66-8-12.28-15.82-14.15-25.43a2.15,2.15,0,0,1,2.68-2.94A17.07,17.07,0,0,1,123,183.42" transform="translate(-26.81 -35.7)" fill="#e4a98a"></path><path d="M125,134.67a10.22,10.22,0,0,0,3.56-5.43,50,50,0,0,1,2.1-6.26,12.62,12.62,0,0,1,4.91-5.3,4.72,4.72,0,0,1,2.71-.8,4.79,4.79,0,0,1,2.69,1.36,7,7,0,0,1,2.6,4.29c.23,2-.91,4-2.32,5.46s-3.12,2.63-4.5,4.14a40,40,0,0,0-3,4.07,35.1,35.1,0,0,1-18.8,13.23,3.34,3.34,0,0,1-4.38-1c-2-2.33-3.8-5.14-4.19-8.24-.14-1.15-.23-3.09.52-4.09s2.64-1,3.92-1C115.53,135.06,120.48,137.73,125,134.67Z" transform="translate(-26.81 -35.7)" fill="#e4a98a"></path><path d="M125.88,68.14c-3.59-5.8-11.35-8.85-17.74-6.47a4.92,4.92,0,0,1-1.89.47c-4.66-.21-8.07-2.67-12.64.39a10.79,10.79,0,0,0-4.7,9.24c-3.11-.88-6.37,1.66-7.43,4.71s-.48,6.42.19,9.58C79,87.29,77.41,90.24,77,93.17a26.37,26.37,0,0,0,.8,8.78c-2.44-.73-4.86,1.82-5,4.36s1.2,4.91,2.5,7.1a11.35,11.35,0,0,0-7.7,6.78c-1.18,3.35,0,7.55,3,9.37.92.55,2,.88,2.85,1.46s1.42,1.17,2.16,1.72c3.83,2.88,9.53,2,13.36-.89,8.45-6.33,10.09-18.73,16-27,4.48-6.25,11.14-8,17-12.43,4-3,5.22-7.48,6-12.32A17.46,17.46,0,0,0,125.88,68.14Z" transform="translate(-26.81 -35.7)" fill="#3e3e52"></path><path d="M125.63,90.67l.5,2a2.51,2.51,0,0,1,.07,1.3c-.19.58-.78.93-1.22,1.35-1.29,1.22-1.46,3.19-2.34,4.73-1.36,2.4-4.3,3.48-7,3.62a10.66,10.66,0,0,0-4.19.6c-1.68.83-2.53,2.72-2.93,4.55a15.64,15.64,0,0,0-.34,4.15c.21,4,2,8,1.48,12-3.49-.34-6.7-2-9.82-3.58s-6.69-3.68-7.51-7.16c-1.13-4.82,2.73-9.57,3.38-14.19.84-5.93.13-12,.94-17.92a14.88,14.88,0,0,1,2.84-7.6,13.31,13.31,0,0,1,4-3.12c6.11-3.31,13.68-2.42,17.47,3.87A30.69,30.69,0,0,1,124,84.09Z" transform="translate(-26.81 -35.7)" fill="#e4a98a"></path><path d="M93.64,111.74a3.9,3.9,0,0,1,3.25.39c2,1.24,10.5,13.07,12.72,12.87s6.26,8.3,5.12,12.38-4.36,6.85-4.67,11.42-3.12,14.86-3.12,14.86l17.25,7.06c-1.76,6.78-2.15,13.75-4.4,20.48a4.4,4.4,0,0,1-1.55,2.5,4.53,4.53,0,0,1-2.22.5,186.81,186.81,0,0,1-28.87-.88c-3-.32-6.15-.79-8.5-2.66-3.5-2.78-4.2-7.79-4.1-12.26.34-15.29,6.87-29.79,8.7-45,.49-4.11.66-8.3,2-12.22C86.16,118.47,89.86,112.82,93.64,111.74Z" transform="translate(-26.81 -35.7)" fill="#68e1fd"></path><path d="M96.34,174.81a56.71,56.71,0,0,0-11.06,12.43,3.63,3.63,0,0,0-.83,2.78,3.11,3.11,0,0,0,1.17,1.52c5.48,4.41,13.17,2.65,19.55,4.26,7.66,1.94,11.44,11,14.22,17.74a6.12,6.12,0,0,0,1.73,2.71,5.77,5.77,0,0,0,3.17.83,75.94,75.94,0,0,0,16.43-.92,5.33,5.33,0,0,0,3-1.21c1.22-1.23,1-3.23.66-4.93a67.35,67.35,0,0,0-9.55-22.91c-2.14-3.27-4.58-7-7.53-9.59-3.24-2.87-8.24-4.2-12.24-5.93-2.72-1.19-5.58-2.39-8.54-2.17s-5.75,1.92-8.17,3.76C97.68,173.71,97,174.25,96.34,174.81Z" transform="translate(-26.81 -35.7)" fill="#3e3e52"></path><path d="M107.81,85.58a23.11,23.11,0,0,0-3.26,1,3.07,3.07,0,0,0-1.91,2.6c.22-1-1-1.9-2-1.68a2.61,2.61,0,0,0-1.83,2.21,4,4,0,0,0,2.53,4.3c-1.85,2.34-1.48,5.65-1.64,8.62a21.28,21.28,0,0,1-2.86,9.51,13.35,13.35,0,0,1-4.33,4.72c-1.26.78-3.13,1.17-4.08,0a3.69,3.69,0,0,1-.63-2.11c-1-11.38-1.3-23.14,2.55-33.89a24.34,24.34,0,0,1,3.52-6.81c3.26-4.19,8.42-6.59,13.66-7.45,5-.81,11.39.62,9.39,6.76C115.37,78.32,113.27,83.85,107.81,85.58Z" transform="translate(-26.81 -35.7)" fill="#3e3e52"></path><path d="M95.83,112.14a9.09,9.09,0,0,1,3.55,3.69c4.1,6.75,5.31,15,9.45,21.68a9.6,9.6,0,0,0,2.08,2.53,10.48,10.48,0,0,0,2.69,1.42,54,54,0,0,0,16.16,3.68c2.63.19,5,.38,7.36-.64a10.69,10.69,0,0,1,14.18,5.94,1.07,1.07,0,0,1,.06.92c-.19.33-.63.38-1,.39l-5.48.23-7.36.29-1.32.06c-7.31.29-15.51,1.53-22.63-.56S101.42,144,96.42,138.71a50.92,50.92,0,0,1-7-8.39c-1.89-3.13-3-6.86-2.34-10.45S92.21,112.6,95.83,112.14Z" transform="translate(-26.81 -35.7)" fill="#e4a98a"></path><path d="M140.4,124.47l5.87,8s.77,1-.9.49-7.06-10-7.06-10c-1.11-2-2.42-3.8-3.53-5.75-.23-.42-.45-.84-.67-1.27a.48.48,0,0,0-.18-.24.64.64,0,0,0-.27-.07c-.34,0-.69,0-1,0a5.29,5.29,0,0,1-.89,0,2.56,2.56,0,0,1-1-.37,6,6,0,0,1-2.12-3.05,2.71,2.71,0,0,1-.28-1.77,3.38,3.38,0,0,1,.82,1,8.45,8.45,0,0,0,1.22,1.45,1,1,0,0,0,.68.35.27.27,0,0,0,.17-.08c.09-.09,0-.25,0-.37l-1.46-3.58a.74.74,0,0,1-.06-.56,1.56,1.56,0,0,1,1,.57,4.59,4.59,0,0,1,.61,1,12.18,12.18,0,0,0,1.41,2.32.33.33,0,0,0,.17.14.22.22,0,0,0,.23-.15.48.48,0,0,0,0-.29c-.18-1.32-1.4-2.35-1.48-3.68a2.12,2.12,0,0,1,1.23.89,8.5,8.5,0,0,1,.72,1.37,16.41,16.41,0,0,0,1,1.75,5.06,5.06,0,0,1,.54,1,1.31,1.31,0,0,1-.11,1.11.22.22,0,0,0-.05.11.21.21,0,0,0,.05.12l.91,1.47c.26.41.53.78.82,1.16a5.57,5.57,0,0,1,.48,1c.42.83.85,1.66,1.28,2.49.59,1.12,1.18,2.25,1.78,3.37Z" transform="translate(-26.81 -35.7)" fill="#fff"></path><path d="M136,106.45a1.33,1.33,0,0,1,.36.49,1.16,1.16,0,0,1,0,.69,3.35,3.35,0,0,1-2.52,2.05,20,20,0,0,0-3.28.85c-.94.45-1.81,1.26-2.85,1.16a2.37,2.37,0,0,1-1.64-1,7.43,7.43,0,0,1-.83-1.81,1,1,0,0,1-.07-.57.9.9,0,0,1,.35-.42,17,17,0,0,1,5.8-2.83C133.27,104.46,134.61,105,136,106.45Z" transform="translate(-26.81 -35.7)" fill="#5d2e33"></path><path d="M134.56,106.65a3.54,3.54,0,0,1-1.26.77,16.17,16.17,0,0,1-3.72.9,3.75,3.75,0,0,0-.81.16,5.33,5.33,0,0,0-1.39.92,2.32,2.32,0,0,1-1.52.61,1.81,1.81,0,0,0,.72,1.46,2.79,2.79,0,0,0,2.65.1c.85-.35,1.62-.89,2.49-1.19,1.19-.42,2.52-.34,3.7-.8a2.73,2.73,0,0,0,.72-.41,2.06,2.06,0,0,0,.57-2.13,2.5,2.5,0,0,0-1.12-1.41C134.94,105.3,134.91,106.28,134.56,106.65Z" transform="translate(-26.81 -35.7)" fill="url(#linear-gradient-9)"></path><path d="M119.52,97.13a23.07,23.07,0,0,0-3.43-.23,6.09,6.09,0,0,0,1.53,3.71,1.25,1.25,0,0,0,.84.49,1.2,1.2,0,0,0,.88-.63,5.63,5.63,0,0,0,1-2.91.36.36,0,0,0,0-.18.32.32,0,0,0-.22-.12l-1.28-.35" transform="translate(-26.81 -35.7)" fill="#fff"></path><path d="M135.49,144.68c-2.83,0-5.87.1-8.13,1.22s-3.33,3.19-4.15,5.08c-5,11.4-10.54,22.9-20.57,32.74-.63.62-1.31,1.28-1.32,2a2.9,2.9,0,0,0,1.25,2c5.62,4.93,15.78,6.58,25.11,6.49,2.5,0,5.15-.12,7.36.67a11.81,11.81,0,0,1,4.08,2.74c5,4.59,10.39,9.55,18.46,11.43,7.86,1.84,17.06.42,24.45,3,5.73,2,9.13,5.92,13,9.37a9.69,9.69,0,0,0,5.79,2.89c3.49.25,6.11-1.94,8.46-3.67,4.84-3.57,11.25-6,17.12-8.8s11.54-6.27,13.71-10.85c1.2,3.53,7.76,5.09,13.16,4.59s10.28-2.39,15.58-3.22c8.39-1.3,17.11.12,25.7.52,5,.23,10.64-.08,13.9-2.59,3-2.32,2.9-5.83,1.37-8.71s-4.26-5.43-6.17-8.21c-4.09-6-4.2-12.78-5.28-19.32-.93-5.66-3-13.65-10.09-17.57-3.48-1.94-9.31-1.23-13.62-1.3q-9.54-.16-19.09-.28-38.42-.51-76.85-.45Q157.08,144.48,135.49,144.68Z" transform="translate(-26.81 -35.7)" fill="#68e1fd"></path><path d="M276.82,188.27c-6.75-10-4.91-23.18-6.64-35.1-.37-2.56-1.23-5.49-3.65-6.44a7.83,7.83,0,0,0-2.82-.38l-89.82-1.19c-2.45,0-5,0-7.15,1.23-4.23,2.52-4.37,8.45-6.4,12.94l8.78-8.63c1.28,2,1.27,4.46,1.16,6.8a143.88,143.88,0,0,1-1.9,17.45,30.94,30.94,0,0,1-2.5,8.7,12.05,12.05,0,0,1-6.41,6.12,13.85,13.85,0,0,0,7.38,1.88,5.67,5.67,0,0,0,3.16-.85,6.82,6.82,0,0,0,1.81-2.21,80.82,80.82,0,0,0,9.5-23.82,24.34,24.34,0,0,1,1.76-5.84,6.83,6.83,0,0,1,4.51-3.81,6.61,6.61,0,0,1,6.22,2.78,16.13,16.13,0,0,1,2.57,6.65,62.38,62.38,0,0,1,1.24,13.63c-.08,4.73-.7,9.54.32,14.17,1.59,7.2,6.87,12.94,10.14,19.54A112.07,112.07,0,0,1,206,156.4a3.31,3.31,0,0,1,3.88-3.33l35.37-1c3.86-.12,8-.15,11.2,2,3.5,2.34,5,6.65,6.28,10.66l5.34,16.77a10.36,10.36,0,0,1,.71,3.87,8.49,8.49,0,0,1-1.7,4.06,24.18,24.18,0,0,1-15.27,9.93,7.84,7.84,0,0,1-3.76,0c-3-.91-4.27-4.31-5.16-7.29l-.18,8.15a3.76,3.76,0,0,0,.54,2.5,3.15,3.15,0,0,0,1.82.94c4,.87,8-.76,11.89-1.9,6.67-2,13.1-2.05,20-1.79,2.54.1,3.83-1.23,3.83-3.92C280.73,193,278.39,190.61,276.82,188.27Z" transform="translate(-26.81 -35.7)" fill="url(#linear-gradient-10)"></path><rect x="231.59" y="87.18" width="10.14" height="21.55" fill="#fff"></rect><path d="M259.71,129a.8.8,0,0,1,.18-.6.87.87,0,0,1,.55-.19q3.07-.26,6.17-.37a.71.71,0,0,1,.86.89q.22,5.63.23,11.26c0,.94.13,2.67-.71,3.24-.59.41-2.82.21-3.56.13a3.78,3.78,0,0,1-3.23-2C258.47,138.08,259.58,132.54,259.71,129Z" transform="translate(-26.81 -35.7)" fill="#68e1fd" opacity="0.18" style="isolation: isolate;"></path><path d="M259.71,129a.8.8,0,0,1,.18-.6.87.87,0,0,1,.55-.19q3.07-.26,6.17-.37a.71.71,0,0,1,.86.89q.22,5.63.23,11.26c0,.94.13,2.67-.71,3.24-.59.41-2.82.21-3.56.13a3.78,3.78,0,0,1-3.23-2C258.47,138.08,259.58,132.54,259.71,129Z" transform="translate(-26.81 -35.7)" fill="#68e1fd" opacity="0.18" style="isolation: isolate;"></path><rect x="139.08" y="87.18" width="10.14" height="21.55" fill="#fff"></rect><rect x="117.49" y="87.18" width="10.14" height="21.55" fill="#fff"></rect><path d="M263,133.15a4.81,4.81,0,0,0-3.54,4.09c-.07,2,1.51,3.7,3.33,4.45a14.72,14.72,0,0,0,5.84.69c2.14,0,5.87.86,6.72-1.55a5.69,5.69,0,0,0-.53-4.94C272.74,133.2,266,132.24,263,133.15Z" transform="translate(-26.81 -35.7)" fill="#e4a98a"></path><path d="M167.19,129.57a.9.9,0,0,1,.18-.61.84.84,0,0,1,.56-.18q3.07-.25,6.16-.38a.92.92,0,0,1,.57.1,1,1,0,0,1,.29.8c.16,3.74.24,7.5.24,11.25,0,.94.13,2.67-.71,3.25-.6.4-2.82.21-3.56.12a3.72,3.72,0,0,1-3.23-2C166,138.64,167.06,133.11,167.19,129.57Z" transform="translate(-26.81 -35.7)" fill="#68e1fd" opacity="0.18" style="isolation: isolate;"></path><path d="M167.19,129.57a.9.9,0,0,1,.18-.61.84.84,0,0,1,.56-.18q3.07-.25,6.16-.38a.92.92,0,0,1,.57.1,1,1,0,0,1,.29.8c.16,3.74.24,7.5.24,11.25,0,.94.13,2.67-.71,3.25-.6.4-2.82.21-3.56.12a3.72,3.72,0,0,1-3.23-2C166,138.64,167.06,133.11,167.19,129.57Z" transform="translate(-26.81 -35.7)" fill="#68e1fd" opacity="0.18" style="isolation: isolate;"></path><path d="M145.61,129.57a.65.65,0,0,1,.73-.79c2-.17,4.11-.3,6.16-.38a.92.92,0,0,1,.57.1.94.94,0,0,1,.3.8c.15,3.74.23,7.5.23,11.25,0,.94.13,2.67-.71,3.25-.59.4-2.82.21-3.56.12a3.74,3.74,0,0,1-3.23-2C144.37,138.64,145.48,133.11,145.61,129.57Z" transform="translate(-26.81 -35.7)" fill="#68e1fd" opacity="0.18" style="isolation: isolate;"></path><path d="M145.61,129.57a.65.65,0,0,1,.73-.79c2-.17,4.11-.3,6.16-.38a.92.92,0,0,1,.57.1.94.94,0,0,1,.3.8c.15,3.74.23,7.5.23,11.25,0,.94.13,2.67-.71,3.25-.59.4-2.82.21-3.56.12a3.74,3.74,0,0,1-3.23-2C144.37,138.64,145.48,133.11,145.61,129.57Z" transform="translate(-26.81 -35.7)" fill="#68e1fd" opacity="0.18" style="isolation: isolate;"></path><path d="M99.24,113.38A8.45,8.45,0,0,0,95.89,110c-2.21-1-4.94-.09-6.67,1.63A15.83,15.83,0,0,0,85.76,118a14.13,14.13,0,0,0-1.07,6.42,15.45,15.45,0,0,0,1.4,4.21L91.62,141a83.33,83.33,0,0,0,6.49-5.69,15.93,15.93,0,0,1,7.47-4.11,56.63,56.63,0,0,1-2.21-9.21C102.8,119,100.85,115.94,99.24,113.38Z" transform="translate(-26.81 -35.7)" fill="#68e1fd"></path><path d="M163.44,242.59a9.77,9.77,0,0,0-3.06,1.06,10,10,0,0,1-5.29.61c-2.33-.37-4.43-1.56-6.66-2.32a4.22,4.22,0,0,0-1.75-.29,1.68,1.68,0,0,0-1.41,1,2.53,2.53,0,0,0,.24,1.79l.84,2.15a8.59,8.59,0,0,0,1.21,2.35,2.92,2.92,0,0,0,2.28,1.16c1,0,1.77-.71,2.7-.95a7.37,7.37,0,0,1,3.32.25,39.59,39.59,0,0,0,5,.6c3.42.26,7.14.45,10-1.48.41-.28.84-.76.63-1.22a1.16,1.16,0,0,0-.44-.44C169,245.45,166,242.44,163.44,242.59Z" transform="translate(-26.81 -35.7)" fill="#68e1fd"></path><path d="M229.41,220.72c-1.85,1.19-3.06,3.12-4.61,4.66s-3.84,2.77-5.88,2a8.05,8.05,0,0,0-1.86-.75c-1.44-.18-2.53,1.25-3.26,2.51s-1.57,2.93-1.27,4.49a1.07,1.07,0,0,0,.26.56,1.18,1.18,0,0,0,.6.24c2.53.41,5.06-.67,7.27-2a38.68,38.68,0,0,0,5.58-3.93C228.49,226.6,230.65,223.84,229.41,220.72Z" transform="translate(-26.81 -35.7)" fill="#68e1fd"></path><path d="M242.17,223.16c-1.84,1.19-3,3.12-4.6,4.66s-3.84,2.77-5.89,2a8.16,8.16,0,0,0-1.85-.75c-1.45-.18-2.54,1.25-3.26,2.51s-1.58,2.93-1.27,4.49a1.06,1.06,0,0,0,.25.56,1.18,1.18,0,0,0,.61.24c2.52.41,5.05-.67,7.27-2A38,38,0,0,0,239,231C241.26,229,243.42,226.28,242.17,223.16Z" transform="translate(-26.81 -35.7)" fill="#68e1fd"></path><path d="M192.44,225.26a13.88,13.88,0,0,0,3.72,3.08,13.13,13.13,0,0,1,3.13,2.34,3.72,3.72,0,0,1,.87,3.64c-.75,1.9-3.23,2.29-5.27,2.25a45.15,45.15,0,0,1-10.6-1.47c-4.12-1.07-6.88-6.3-4.2-10.2C182.35,221.62,190.34,222.57,192.44,225.26Z" transform="translate(-26.81 -35.7)" fill="#68e1fd"></path><path d="M162.68,229.43c-.45-.75.32-1.64,1-2.13A16,16,0,0,1,168.9,225a5.52,5.52,0,0,1,1.66-.21,5.76,5.76,0,0,1,1.81.43,16.45,16.45,0,0,1,9.86,10.61,3.26,3.26,0,0,1,.17,1.48c-.27,1.36-1.92,1.89-3.29,2a22,22,0,0,1-19-8.12" transform="translate(-26.81 -35.7)" fill="#68e1fd"></path><path d="M178.1,126.36a2.78,2.78,0,0,0-1.28-.31c-1,.07-1.62,1-1.87,2-.7,2.66.65,5.44,2.36,7.6a45.44,45.44,0,0,0,6.39,6.24c2.24,1.93,4.65,3.93,7.56,4.42a6.24,6.24,0,0,0,2.32,0,5.48,5.48,0,0,0,4.07-4.47c.74-4.68-2.49-6.37-6-7.84C186.84,132,182.88,128.42,178.1,126.36Z" transform="translate(-26.81 -35.7)" fill="#e4a98a"></path><path d="M168.54,104a.22.22,0,0,0-.14,0c-.08.06-.07.17,0,.27a3.92,3.92,0,0,0,2,2.5,1.56,1.56,0,0,0,1.42.11,2.15,2.15,0,0,0,.51-.49c.6-.75,1.66-2.08.25-2.45A16.24,16.24,0,0,0,168.54,104Z" transform="translate(-26.81 -35.7)" fill="#fff" style="isolation: isolate;"></path><path d="M176.27,125.59a1.11,1.11,0,0,0-.54-.13,7.26,7.26,0,0,0-1.68,0,2.79,2.79,0,0,0-1.5.7,3.49,3.49,0,0,0-.66,1,6.37,6.37,0,0,0-.49,1.41,6.45,6.45,0,0,0-.08,1.64,6.78,6.78,0,0,0,.27,1.62,2.91,2.91,0,0,0,.54,1.05,2.88,2.88,0,0,0,1,.7,4.08,4.08,0,0,0,2.09.37,2.9,2.9,0,0,0,1.86-1,3.4,3.4,0,0,0,.67-2.05,10.66,10.66,0,0,0-.28-2.17,16.14,16.14,0,0,0-.41-1.83A2.9,2.9,0,0,0,176.27,125.59Z" transform="translate(-26.81 -35.7)" fill="#e4a98a"></path></svg>