<svg id="Layer_1" data-name="Layer 1" xmlns="http://www.w3.org/2000/svg" viewBox="0 0 400 300" width="406" height="306" class="illustration styles_illustrationTablet__1DWOa"><title>_</title><path d="M362.61,123.32C350.8,90.7,326.94,69.65,287.05,62.84c-55.2-9.42-125-9.93-178.42-.44C88.73,65.93,68.74,72.52,54.9,85.28c-25.65,23.65-32.57,75.79-8.17,101.9,10.87,11.62,29,16,46.12,18.59,65.08,10,131.83,4.45,197.76.32,15.29-1,31.21-2,44.41-8.7C363,183.2,371.74,148.51,362.61,123.32Z" fill="#dddbdb" opacity="0.18"></path><path d="M228.76,143.31a57.53,57.53,0,0,0,2.45-5.5c-.09-.25-1-.5-.78-1.32s.89-1.21,1.73-.53a1.53,1.53,0,0,1,.7,1.4s1.09-.88,1.86.06-.11,1.49-.7,1.61a1.66,1.66,0,0,1-1.05-.12s-2.14,4.05-2.77,5.48l-1.38-.95Z" fill="#ccc"></path><path d="M225.8,154.64a5.93,5.93,0,0,1-3.93-2.52,3.14,3.14,0,0,1-.38-2.48,6.07,6.07,0,0,1,.66-1.79,9.13,9.13,0,0,1,3.31-3.22,14.75,14.75,0,0,0,1.58-1,3.93,3.93,0,0,0,.66-.69,5.85,5.85,0,0,0,.41-.88,1,1,0,0,1,.18-.29.64.64,0,0,1,.69-.12,1.41,1.41,0,0,1,.54.49,2.34,2.34,0,0,1,.36.88,2,2,0,0,1,1.38-.06.67.67,0,0,1,.53.36.6.6,0,0,1-.07.47c-.11.23-.28.42-.41.65a2.58,2.58,0,0,0,0,2c.05.2.1.41.14.62a7,7,0,0,1,.15,2.42,7.39,7.39,0,0,1-.54,1.77C230.12,153.36,228.33,155,225.8,154.64Z" fill="#ffd200"></path><path d="M225.8,154.64a5.93,5.93,0,0,1-3.93-2.52,3.14,3.14,0,0,1-.38-2.48,7.23,7.23,0,0,0,.88.87,6.36,6.36,0,0,0,2.2,1.35,5.08,5.08,0,0,0,5-1.85,14.54,14.54,0,0,0,1.84-3,7,7,0,0,1,.15,2.42,7.39,7.39,0,0,1-.54,1.77C230.12,153.36,228.33,155,225.8,154.64Z" opacity="0.1"></path><path d="M224,147.43a2.39,2.39,0,0,0-.46.86,1.79,1.79,0,0,0,.9,1.91,2.51,2.51,0,0,0,2.19,0,4.3,4.3,0,0,0,1.69-1.48,1.94,1.94,0,0,0,.34-.71A2.15,2.15,0,0,0,227,145.6,4.42,4.42,0,0,0,224,147.43Z" fill="#fff" opacity="0.3"></path><path d="M236.31,145.84a55,55,0,0,0,2.46-5.49c-.1-.25-1-.5-.78-1.32s.89-1.21,1.73-.53a1.53,1.53,0,0,1,.69,1.4s1.1-.88,1.87.06-.12,1.49-.7,1.61a1.66,1.66,0,0,1-1.05-.12s-2.14,4.05-2.77,5.47l-1.38-.94Z" fill="#ccc"></path><path d="M233.36,157.18a5.93,5.93,0,0,1-3.93-2.52,3.19,3.19,0,0,1-.39-2.48,6.38,6.38,0,0,1,.67-1.79,9.13,9.13,0,0,1,3.3-3.23,12.52,12.52,0,0,0,1.58-1,3.32,3.32,0,0,0,.66-.69,5.85,5.85,0,0,0,.41-.88,1.14,1.14,0,0,1,.18-.3.66.66,0,0,1,.69-.11,1.16,1.16,0,0,1,.54.49,2.3,2.3,0,0,1,.36.87,2,2,0,0,1,1.38-.05.7.7,0,0,1,.54.36.66.66,0,0,1-.07.47c-.12.23-.29.42-.41.64a2.54,2.54,0,0,0,0,2c0,.21.09.42.14.63a7,7,0,0,1,.14,2.42,6.94,6.94,0,0,1-.53,1.77C237.67,155.9,235.89,157.53,233.36,157.18Z" fill="#ffd200"></path><path d="M233.36,157.18a5.93,5.93,0,0,1-3.93-2.52,3.19,3.19,0,0,1-.39-2.48,7.21,7.21,0,0,0,.89.86,6.59,6.59,0,0,0,2.19,1.36c1.8.54,3.77-.44,5-1.85a15,15,0,0,0,1.84-3,7,7,0,0,1,.14,2.42,6.94,6.94,0,0,1-.53,1.77C237.67,155.9,235.89,157.53,233.36,157.18Z" opacity="0.1"></path><path d="M231.57,150a2.25,2.25,0,0,0-.46.86,1.78,1.78,0,0,0,.9,1.91,2.48,2.48,0,0,0,2.19,0,4.11,4.11,0,0,0,1.68-1.47,2,2,0,0,0-1.33-3.16A4.36,4.36,0,0,0,231.57,150Z" fill="#fff" opacity="0.3"></path><path d="M218.9,145.09a58.53,58.53,0,0,0-1.69-5.77c-.24-.13-1.09.26-1.46-.5s-.1-1.5,1-1.52a1.51,1.51,0,0,1,1.43.61s.26-1.38,1.45-1.17.89,1.21.53,1.68a1.75,1.75,0,0,1-.89.59s1,4.47,1.45,6l-1.66.17Z" fill="#ccc"></path><path d="M224,155.64a6,6,0,0,1-4.63.63,3.16,3.16,0,0,1-1.9-1.64,6.09,6.09,0,0,1-.66-1.79,9.14,9.14,0,0,1,.42-4.6,16.35,16.35,0,0,0,.54-1.81,3.77,3.77,0,0,0,.05-1,5.25,5.25,0,0,0-.26-.94,1.28,1.28,0,0,1-.06-.34.66.66,0,0,1,.46-.53,1.22,1.22,0,0,1,.73,0,2.48,2.48,0,0,1,.84.43,2.06,2.06,0,0,1,1-.94.7.7,0,0,1,.64-.07.57.57,0,0,1,.25.4c.06.25.06.51.11.76a2.56,2.56,0,0,0,1.26,1.52l.51.38a7,7,0,0,1,1.68,1.75,6.89,6.89,0,0,1,.74,1.69C226.47,151.86,226.17,154.26,224,155.64Z" fill="#ffd200"></path><path d="M224,155.64a6,6,0,0,1-4.63.63,3.16,3.16,0,0,1-1.9-1.64,7.26,7.26,0,0,0,1.23.08,6.44,6.44,0,0,0,2.55-.39,5.09,5.09,0,0,0,2.61-4.67,14.52,14.52,0,0,0-.55-3.48,7,7,0,0,1,1.68,1.75,6.89,6.89,0,0,1,.74,1.69C226.47,151.86,226.17,154.26,224,155.64Z" opacity="0.1"></path><path d="M218,151.31a2.35,2.35,0,0,0,.21.95,1.79,1.79,0,0,0,1.93.87,2.45,2.45,0,0,0,1.68-1.39,4.21,4.21,0,0,0,.33-2.22,2,2,0,0,0-.2-.77,2.16,2.16,0,0,0-2.86-.77A4.37,4.37,0,0,0,218,151.31Z" fill="#fff" opacity="0.3"></path><path d="M201.44,129.71s3.66,15.63-3.4,15.75-5.22-15.75-5.22-15.75Z" fill="#f4a28c"></path><path d="M204.13,130.73s.74,3.12-3.71,3.41a55.65,55.65,0,0,1-7.82,0s-5.39-1.78-2.42-6.67,3.16.59,6.55-3.56,6.44-1,5.66,2S206,126.68,204.13,130.73Z" fill="#24285b"></path><path d="M194,142.55l-1.4,10s-2.57,4.16,2.78,5.05,7.27-1.34,3.85-4.9l-.89-10.14Z" fill="#f4a28c"></path><path d="M192.6,134.14s-3.76.06-3.31,3.44,4.75,0,4.75,0Z" fill="#f4a28c"></path><path d="M206.8,155.07c4.38,2,10.95,6,14.14,12.76a10.85,10.85,0,0,1-1.78,11.92l-8.62,9.56s.92,4.74-1.72,5.14-1.84-7.12-1.84-7.12l6.24-9.91a3.12,3.12,0,0,0-1.53-4.56c-4.37-1.67-10.92-5.69-10.18-14.68A3.75,3.75,0,0,1,206.8,155.07Z" fill="#f4a28c"></path><polygon points="208.83 185.87 210.58 199.6 180.72 199.6 183.78 187.06 208.83 185.87" fill="#24285b"></polygon><path d="M198.6,145.5s-1.85.08-4.31-1.94a5.31,5.31,0,0,0,4.57,4.82Z" fill="#ce8172" opacity="0.31"></path><path d="M192.6,152.54s-11.36-.22-12.39,11,3.57,23.56,3.57,23.56l25.05-1.19s11.92-30.1-9.6-33.18Z" fill="#68e1fd"></path><path d="M191.64,158.74a21.16,21.16,0,0,1-1.1,10.48,23.25,23.25,0,0,0-1,14.16l.83,3.68,2.83,12.54H180.72l2-7.51-1.2-12.92s-1.34-5.82-1.19-6.87S191.64,158.74,191.64,158.74Z" opacity="0.08"></path><path d="M186.3,154.15c-3.86,1.79-9.41,5.11-12.86,10.45a12.45,12.45,0,0,0,1.25,15.07l7.87,8.71s-.92,4.75,1.71,5.14,1.85-7.11,1.85-7.11l-5.89-9.36a3.65,3.65,0,0,1,1.69-5.32c4.35-1.78,10.38-5.83,9.67-14.47A3.75,3.75,0,0,0,186.3,154.15Z" fill="#f4a28c"></path><path d="M118.43,114.31s-33.38-10.86-46.86,3.36,0,65.64,0,65.64h32.19Z" fill="#ffd200"></path><path d="M149.42,167.56l-.49,10.19a36.46,36.46,0,0,1-1.25,9.26,12.23,12.23,0,0,1-5.55,7.26c-2.77,1.46-6.52,1.24-8.67-1a9.59,9.59,0,0,1-2.19-4.94c-1-5-.24-10.11.65-15.1.48-2.65,1-5.29,1.73-7.88a22,22,0,0,1,2.58-6.12,10.25,10.25,0,0,1,5.05-4.17c2.33-.8,7.3-1.16,8.25,1.84S149.57,164.38,149.42,167.56Z" fill="#f4a28c"></path><path d="M136.75,123.45s18.46,7.88,15.64,36.72l-18-1.55Z" fill="#68e1fd"></path><path d="M136.75,123.45s18.46,7.88,15.64,36.72l-18-1.55Z" fill="#fff" opacity="0.36"></path><polygon points="117.53 98.75 112.41 116.8 122.56 118.91 122.21 104.93 117.53 98.75" fill="#f4a28c"></polygon><path d="M122.42,108a6.78,6.78,0,0,1-3.1-2.38s-.26,3.43,3.09,7.24Z" fill="#ce8172" opacity="0.31"></path><path d="M112.1,116.37l6,1.25s27.54,3,28.66,18.51-14.44,55.27-14.44,55.27H90.61S57.18,112.26,112.1,116.37Z" fill="#68e1fd"></path><path d="M134.23,149.16a3.19,3.19,0,0,1,5.49,3.25c-1,1.64-3,3.14-4.53,3.07l-5.18,9a1,1,0,0,1-1.38.37,1,1,0,0,1-.35-1.37h0l5.42-8.89C132.92,153.31,133.25,150.8,134.23,149.16Z" fill="#fff"></path><path d="M128,99.28s-.51,5.7-2.12,9.27A2.87,2.87,0,0,1,122.1,110a6.34,6.34,0,0,1-4-5.57l-.81-5.22a5.13,5.13,0,0,1,3.19-5C124,92.44,128.52,95.82,128,99.28Z" fill="#f4a28c"></path><path d="M100.08,124.05s14.27,8.29,11,27-8.82,25.21,2.95,22.59,16.62-8.52,16.62-8.52,8.47,6.91,0,12.15-20,5.23-21.79,14.52H90.92s-1.45-4.07-3.37-9.19S100.08,124.05,100.08,124.05Z" opacity="0.09"></path><path d="M126.6,99.26a22.86,22.86,0,0,1-5.13-1.32,4.77,4.77,0,0,1-.91,5.16,3.89,3.89,0,0,1-4.9.7L117,96.58A5.87,5.87,0,0,1,120.86,92a21.63,21.63,0,0,1,2.63-.75c2.23-.46,5,1.47,7.16.39a1.39,1.39,0,0,1,2,1.28c-.07,2.26-1.08,5.66-4.27,6.33A5.6,5.6,0,0,1,126.6,99.26Z" fill="#24285b"></path><path d="M121.19,103s.34-2.18-1.32-2.3-2.17,3,0,3.7Z" fill="#f4a28c"></path><path d="M78.07,157.2s-2.35,24.09,9.48,25.44c8.93,1,23.25-4,32-6.52,3.79-1.08,5.63-1.59,8.54-4.24,3.48-3.19,8.32-5.45,4.56-8.48-6.68-5.38-11.42,3.83-11.42,3.83a73.79,73.79,0,0,1-17.13,2.85,7,7,0,0,1-7-8.8l2.21-8.3S83.69,138.29,78.07,157.2Z" fill="#f4a28c"></path><path d="M127.53,102.85l1.19,2.45a.92.92,0,0,1-.82,1.32l-2.23,0Z" fill="#f4a28c"></path><path d="M90.36,122.16C84.24,126.88,75,137.31,75.14,157l25.28,1.61s7.3-21.63-.34-34.57A6.57,6.57,0,0,0,90.36,122.16Z" fill="#68e1fd"></path><path d="M90.36,122.16C84.24,126.88,75,137.31,75.14,157l25.28,1.61s7.3-21.63-.34-34.57A6.57,6.57,0,0,0,90.36,122.16Z" fill="#fff" opacity="0.36"></path><polygon points="90.92 191.83 90.92 204.14 136.46 204.14 132.65 191.83 90.92 191.83" fill="#24285b"></polygon><path d="M299.19,113.44s20.58-10,34.05,4.23,0,65.64,0,65.64H301.06Z" fill="#ffd200"></path><path d="M278.17,123.27s-10.41.92-10.41,9.77c0,6.3.92,21.43-1.66,31.35a8.61,8.61,0,0,1-11.7,5.75L230,159.8s-7.54-3.44-10.26-1.46,3.71,4.06,3.71,4.06-2.23,7.78,4.18,7.06,28.08,24.38,45.6,13.18S291.42,136.28,278.17,123.27Z" fill="#f4a28c"></path><path d="M278.17,123.27s-10.41.92-10.41,9.77c0,6.3.92,21.43-1.66,31.35a8.61,8.61,0,0,1-11.7,5.75L230,159.8s-7.54-3.44-10.26-1.46,3.71,4.06,3.71,4.06-2.23,7.78,4.18,7.06,28.08,24.38,45.6,13.18S291.42,136.28,278.17,123.27Z" opacity="0.08"></path><path d="M283.23,92.3a31.5,31.5,0,0,0-2.51,8,2.52,2.52,0,0,0,2.26,2.78,5.59,5.59,0,0,0,5.56-2.42l2.93-3.6a4.52,4.52,0,0,0-.19-5.22C289.33,88.91,284.4,89.46,283.23,92.3Z" fill="#f4a28c"></path><polygon points="290.37 97.85 291.55 114.31 282.43 114.31 285.16 102.64 290.37 97.85" fill="#f4a28c"></polygon><path d="M282,95.24l-2,1.33a.81.81,0,0,0,0,1.36l1.68,1Z" fill="#f4a28c"></path><path d="M285.09,103a6.17,6.17,0,0,0,3-1.42s.59,3.56-3.75,4.76Z" fill="#ce8172" opacity="0.31"></path><path d="M282.43,114.31s-18.17,11-18.35,20.57a19.39,19.39,0,0,0,3.58,11.63,22.28,22.28,0,0,1,3.82,9.26l.48,27.54,39.84.85s25.93-54.23-10.35-70.72Z" fill="#68e1fd"></path><path d="M307.12,125s-15.57,2.08-12.08,26.89c1.67,11.88,3.55,18.13-15.36,12.45l-8.13-4.71.41,23.65,39.84.85L317.66,167Z" opacity="0.08"></path><path d="M282.43,114.31s.34,7.56,5.65,6.64,7.88-2.33,8.79-7.3Z" fill="#fff"></path><path d="M281.3,92.76l6.9,2.92a33.52,33.52,0,0,0,2.13,15.45,8.54,8.54,0,0,0,13,3.6h0a3.81,3.81,0,0,0-.35-6.36c-3.45-2.05-7-5.69-6.38-11.88C297.81,85,284.37,80.85,281.3,92.76Z" fill="#24285b"></path><path d="M302.83,132.41c-.36-8.59,11.47-11.58,15.15-3.8a36.78,36.78,0,0,1,3.2,11.51c2.14,18.26,5.61,38.47-9.57,44.52s-41.54-25.89-41.54-25.89l5.07-4.85s20,15.75,28.26,14.48C309.11,167.51,303.49,148.05,302.83,132.41Z" fill="#f4a28c"></path><path d="M275.56,154.76s-1.48-5.76-5.37-8.37c-7.18-4.83-4,1.6-2.26,3.18,0,0-6,3.3,2.9,10.08Z" fill="#f4a28c"></path><rect x="54.32" y="183.31" width="291.36" height="6.23" fill="#e6e6e6"></rect><rect x="54.32" y="189.54" width="291.36" height="54.94" fill="#ccc"></rect><path d="M285.72,183.31s37,44.87-64,61.11H345.68V183.31Z" opacity="0.08"></path><path d="M139.6,174.58a2,2,0,0,0,.7,0A1.83,1.83,0,0,0,141,174a8.8,8.8,0,0,1,10-1.79,1.74,1.74,0,0,0,.86.27,1.78,1.78,0,0,0,.69-.27,7.49,7.49,0,0,1,5.53-.35,17.61,17.61,0,0,1,5,2.59,11.84,11.84,0,0,1,2.44,2.08,4.55,4.55,0,0,1,1.12,2.94,1.43,1.43,0,0,1-.14.61,1.7,1.7,0,0,1-1.22.67,76,76,0,0,1-17.74,1.47c-2.95-.08-5.89-.28-8.83-.55-1.7-.17-5.62.2-5-2.48A6.33,6.33,0,0,1,139.6,174.58Z" fill="#ccc"></path><polygon points="163.94 183.31 136.18 183.31 128.43 179.12 171.7 179.12 163.94 183.31" fill="#24285b"></polygon><path d="M248.57,174.58a2,2,0,0,0,.69,0A1.79,1.79,0,0,0,250,174a8.8,8.8,0,0,1,10-1.79,1.67,1.67,0,0,0,.85.27,1.82,1.82,0,0,0,.7-.27,7.47,7.47,0,0,1,5.52-.35,17.61,17.61,0,0,1,5,2.59,11.59,11.59,0,0,1,2.44,2.08,4.49,4.49,0,0,1,1.12,2.94,1.3,1.3,0,0,1-.14.61,1.68,1.68,0,0,1-1.22.67,75.88,75.88,0,0,1-17.73,1.47c-2.95-.08-5.9-.28-8.83-.55-1.7-.17-5.62.2-5-2.48A6.34,6.34,0,0,1,248.57,174.58Z" fill="#ccc"></path><polygon points="272.91 183.31 245.15 183.31 237.39 179.12 280.67 179.12 272.91 183.31" fill="#24285b"></polygon><path d="M189.54,174.58a2,2,0,0,0,.69,0A1.79,1.79,0,0,0,191,174a8.8,8.8,0,0,1,10-1.79,1.68,1.68,0,0,0,.86.27,1.84,1.84,0,0,0,.69-.27,7.47,7.47,0,0,1,5.52-.35,17.61,17.61,0,0,1,5,2.59,11.59,11.59,0,0,1,2.44,2.08,4.49,4.49,0,0,1,1.12,2.94,1.29,1.29,0,0,1-.13.61,1.72,1.72,0,0,1-1.23.67,75.88,75.88,0,0,1-17.73,1.47c-2.95-.08-5.89-.28-8.83-.55-1.7-.17-5.62.2-5-2.48A6.33,6.33,0,0,1,189.54,174.58Z" fill="#ccc"></path><polygon points="213.88 183.31 186.12 183.31 178.36 179.12 221.64 179.12 213.88 183.31" fill="#24285b"></polygon><path d="M214.59,150.17h26.07a0,0,0,0,1,0,0v.76a13,13,0,0,1-13,13h0a13,13,0,0,1-13-13v-.76A0,0,0,0,1,214.59,150.17Z" fill="#24285b"></path><path d="M194.74,175.56a3.12,3.12,0,0,0,.91,1.62l.89-.07a16.94,16.94,0,0,1,3.57-.69h.12a3,3,0,0,0,.22-2.29c-.44-1.71-1.85-3.56-3.21-3.9L195,160.88v0a.91.91,0,0,0-1.12-.66.92.92,0,0,0-.66,1.14l2.48,9.27C194.67,171.56,194.31,173.86,194.74,175.56Z" fill="#fff"></path></svg>