<svg id="Layer_1" data-name="Layer 1" xmlns="http://www.w3.org/2000/svg" xmlns:xlink="http://www.w3.org/1999/xlink" viewBox="0 0 377.27 285.79" width="406" height="306" class="illustration styles_illustrationTablet__1DWOa"><defs><linearGradient id="linear-gradient" x1="334.28" y1="220.75" x2="158.49" y2="173.35" gradientUnits="userSpaceOnUse"><stop offset="0.01"></stop><stop offset="0.13" stop-opacity="0.69"></stop><stop offset="1" stop-opacity="0"></stop></linearGradient><linearGradient id="linear-gradient-2" x1="258.98" y1="194.24" x2="196.36" y2="186.2" xlink:href="#linear-gradient"></linearGradient><linearGradient id="linear-gradient-3" x1="270.75" y1="118.7" x2="269.32" y2="158.62" xlink:href="#linear-gradient"></linearGradient><linearGradient id="linear-gradient-4" x1="104.53" y1="214.86" x2="179.5" y2="189.87" xlink:href="#linear-gradient"></linearGradient><linearGradient id="linear-gradient-5" x1="164.8" y1="348.16" x2="166.52" y2="219.76" xlink:href="#linear-gradient"></linearGradient><linearGradient id="linear-gradient-6" x1="264.43" y1="169.64" x2="167.35" y2="267.88" xlink:href="#linear-gradient"></linearGradient><linearGradient id="linear-gradient-7" x1="294" y1="246.44" x2="220.85" y2="164.1" xlink:href="#linear-gradient"></linearGradient><linearGradient id="linear-gradient-8" x1="174.92" y1="257.06" x2="202.78" y2="257.06" xlink:href="#linear-gradient"></linearGradient><linearGradient id="linear-gradient-9" x1="28.23" y1="222.2" x2="56.09" y2="222.2" xlink:href="#linear-gradient"></linearGradient><linearGradient id="linear-gradient-10" x1="67.9" y1="256.12" x2="158.95" y2="256.12" xlink:href="#linear-gradient"></linearGradient><linearGradient id="linear-gradient-11" x1="256.83" y1="154.97" x2="218.49" y2="162.01" xlink:href="#linear-gradient"></linearGradient><linearGradient id="linear-gradient-12" x1="223.76" y1="164.3" x2="252.22" y2="164.3" xlink:href="#linear-gradient"></linearGradient><linearGradient id="linear-gradient-13" x1="223.48" y1="161.26" x2="247.16" y2="161.26" gradientUnits="userSpaceOnUse"><stop offset="0.01" stop-color="#fff"></stop><stop offset="0.13" stop-color="#fff" stop-opacity="0.69"></stop><stop offset="1" stop-color="#fff" stop-opacity="0"></stop></linearGradient><linearGradient id="linear-gradient-14" x1="242.75" y1="176.34" x2="229.54" y2="145.51" xlink:href="#linear-gradient"></linearGradient><linearGradient id="linear-gradient-15" x1="159.91" y1="197.32" x2="179.25" y2="143.7" xlink:href="#linear-gradient"></linearGradient><linearGradient id="linear-gradient-16" x1="154.56" y1="157.73" x2="177.07" y2="157.73" xlink:href="#linear-gradient"></linearGradient><linearGradient id="linear-gradient-17" x1="165.78" y1="150.75" x2="194.9" y2="150.75" xlink:href="#linear-gradient"></linearGradient><linearGradient id="linear-gradient-18" x1="165.06" y1="148.02" x2="194.18" y2="148.02" xlink:href="#linear-gradient"></linearGradient><linearGradient id="linear-gradient-19" x1="163.7" y1="146.32" x2="192.34" y2="146.32" xlink:href="#linear-gradient-13"></linearGradient><linearGradient id="linear-gradient-20" x1="183.99" y1="118.42" x2="190.81" y2="119.03" xlink:href="#linear-gradient"></linearGradient><linearGradient id="linear-gradient-21" x1="168.57" y1="128.05" x2="174.32" y2="128.05" xlink:href="#linear-gradient"></linearGradient><linearGradient id="linear-gradient-22" x1="174.92" y1="237.86" x2="194.47" y2="237.86" xlink:href="#linear-gradient-13"></linearGradient><linearGradient id="linear-gradient-23" x1="28.23" y1="203.09" x2="47.78" y2="203.09" xlink:href="#linear-gradient-13"></linearGradient><linearGradient id="linear-gradient-24" x1="258.92" y1="220.33" x2="301.05" y2="220.33" xlink:href="#linear-gradient"></linearGradient></defs><title>24</title><path d="M390.11,199.88c-.45,16.58-3.88,33.11-11.85,47.57-6.71,12.17-17.12,23.2-29.73,29.32-13.41,6.51-26.26,1.71-40.63,1.08-15.57-.7-31.18-1.56-46.62-.59-23.76,1.5-46.18,11-68.84,17.49a244.74,244.74,0,0,1-97.59,7.36c-11.83-1.5-23.78-4-34.13-9.89s-18.61-15.1-25.65-24.8A127.82,127.82,0,0,1,18.65,237.8,88.08,88.08,0,0,1,14,220.68c-2.14-13.27-.93-26.85,1.2-40.12,2.17-13.49,5.38-27.05,12.12-38.95,6.17-10.89,15.07-20,23.94-28.82Q74.68,89.45,99,67c16.26-15.05,33.17-30.05,53.52-38.78,20.09-8.62,42.45-10.62,64.3-9.76,13.09.52,33.78.57,45,8.22,9.66,6.56,17.06,19.59,26.77,27.17,22.16,17.32,48.29,29.52,67.73,50.23,21.22,22.6,32.14,53.67,33.66,84.62C390.16,192.4,390.21,196.14,390.11,199.88Z" transform="translate(-12.89 -18.26)" fill="#68e1fd" opacity="0.18" style="isolation: isolate;"></path><path d="M152.34,149c-3.75.68-7.59,2.15-9.91,5.17a19.09,19.09,0,0,0-2.78,6.14c-4.56,14.82-6.88,30.22-9.18,45.55-.27,1.86-.49,4,.71,5.42a6.37,6.37,0,0,0,3.33,1.75A52.94,52.94,0,0,0,149,214.92a10.26,10.26,0,0,1,4.65.63,9.61,9.61,0,0,1,2.49,2.06c3.88,4,8,7.93,13,10.45,8.15,4.12,17.68,4.15,26.81,4.09l30.63-.21c3.15,0,6.71-.23,8.76-2.62,3-3.45.79-8.67-.88-12.91-5.07-12.93-3.92-27.59-8.54-40.69,3.67-.06,6.55,2.94,9.25,5.42a47.92,47.92,0,0,0,14.39,9.13,151.18,151.18,0,0,1,8-15.82c1.52-2.63,3.19-5.5,2.68-8.49-.48-2.83-2.78-5-4.94-6.84-4.75-4.15-9.5-8.3-14.4-12.27-3.73-3-7.7-6-12.38-7.12a34.59,34.59,0,0,0-8.2-.56c-19,.25-36.78,1.51-54.78,7.84C161.34,148.48,156.69,148.18,152.34,149Z" transform="translate(-12.89 -18.26)" fill="#68e1fd"></path><path d="M152.34,149c-3.75.68-7.59,2.15-9.91,5.17a19.09,19.09,0,0,0-2.78,6.14c-4.56,14.82-6.88,30.22-9.18,45.55-.27,1.86-.49,4,.71,5.42a6.37,6.37,0,0,0,3.33,1.75A52.94,52.94,0,0,0,149,214.92a10.26,10.26,0,0,1,4.65.63,9.61,9.61,0,0,1,2.49,2.06c3.88,4,8,7.93,13,10.45,8.15,4.12,17.68,4.15,26.81,4.09l30.63-.21c3.15,0,6.71-.23,8.76-2.62,3-3.45.79-8.67-.88-12.91-5.07-12.93-3.92-27.59-8.54-40.69,3.67-.06,6.55,2.94,9.25,5.42a47.92,47.92,0,0,0,14.39,9.13,151.18,151.18,0,0,1,8-15.82c1.52-2.63,3.19-5.5,2.68-8.49-.48-2.83-2.78-5-4.94-6.84-4.75-4.15-9.5-8.3-14.4-12.27-3.73-3-7.7-6-12.38-7.12a34.59,34.59,0,0,0-8.2-.56c-19,.25-36.78,1.51-54.78,7.84C161.34,148.48,156.69,148.18,152.34,149Z" transform="translate(-12.89 -18.26)" fill="url(#linear-gradient)"></path><path d="M208,201.9a72.49,72.49,0,0,0-2.17-12.44c-1.28-5.68-2.31-11.57-1.32-17.31s4.36-11.38,9.73-13.65c3.89-1.64,8.29-1.36,12.5-1.05a2.89,2.89,0,0,1,2.05.73,2.84,2.84,0,0,1,.48,1.32,155.44,155.44,0,0,1-.53,56.93,4.05,4.05,0,0,1-1.1,2.43,4,4,0,0,1-2.24.69c-3.68.36-17.59,2.83-19.8-.7-1.1-1.75.56-5,1-6.67A32.49,32.49,0,0,0,208,201.9Z" transform="translate(-12.89 -18.26)" fill="url(#linear-gradient-2)"></path><path d="M235.71,153.87a13.69,13.69,0,0,0-5.7,3.07c-1.95,2-2.68,4.87-3.33,7.59l-5.5,23a71.32,71.32,0,0,0-2.29,13.26c-.39,8.84,2.53,17.46,5.45,25.81q3.1,8.86,6.26,17.7l68.09,3.45c.85-10.65,3.89-21,6.34-31.38s4.33-21.15,2.84-31.73-6.84-21.07-16-26.52C276.74,149.14,252,148.66,235.71,153.87Z" transform="translate(-12.89 -18.26)" fill="#68e1fd"></path><path d="M260.3,161.92a11.41,11.41,0,0,0,.24,3.35,3.85,3.85,0,0,0,2,2.56c1.42.62,3.05,0,4.46-.66,4.49-2.1,9.14-4.9,10.9-9.52a20,20,0,0,0,.81-8.08c-.23-5-.77-10.23-3-14.77a4.69,4.69,0,0,0-1.45-1.94c-1.73-1.21-4.11-.09-5.73,1.25A22.83,22.83,0,0,0,261,146C259.86,151,260.45,156.78,260.3,161.92Z" transform="translate(-12.89 -18.26)" fill="#f7bc9f"></path><path d="M260.3,161.92a11.41,11.41,0,0,0,.24,3.35,3.85,3.85,0,0,0,2,2.56c1.42.62,3.05,0,4.46-.66,4.49-2.1,9.14-4.9,10.9-9.52a20,20,0,0,0,.81-8.08c-.23-5-.77-10.23-3-14.77a4.69,4.69,0,0,0-1.45-1.94c-1.73-1.21-4.11-.09-5.73,1.25A22.83,22.83,0,0,0,261,146C259.86,151,260.45,156.78,260.3,161.92Z" transform="translate(-12.89 -18.26)" fill="url(#linear-gradient-3)"></path><path d="M165.45,169.4a4.15,4.15,0,0,0-1.65,1.06,3.78,3.78,0,0,0-.63,1.29,65.54,65.54,0,0,0-1.59,7.64c-1.61,8.05-5.64,15.41-7.92,23.3a5.89,5.89,0,0,0-.32,2.65,2.16,2.16,0,0,0,1.73,1.83c1.18.12,2.05-1,2.68-2a87.24,87.24,0,0,1,9.66-12.65,20.66,20.66,0,0,1-1.54,10.3,10.56,10.56,0,0,0-1,3,7.59,7.59,0,0,0,1.35,4.46,6.13,6.13,0,0,0,1.18,1.62A6.83,6.83,0,0,0,169.6,213a69.81,69.81,0,0,0,16.24,4.08q-21-.42-42-1.73a1.61,1.61,0,0,1-.92-.25,1.47,1.47,0,0,1-.37-1.16,24.19,24.19,0,0,1,2-8.4c3.39-9.14,6.89-18.25,11-27.07,2.28-4.87,5-9.91,9.62-12.62a28.31,28.31,0,0,1,4.94-2.1l7.49-2.65C178.7,165.86,168.51,168.11,165.45,169.4Z" transform="translate(-12.89 -18.26)" fill="url(#linear-gradient-4)"></path><path d="M313.56,264.3c0,4.69-2,9.23-5.66,13.55-15.57-.7-31.18-1.56-46.62-.59-23.76,1.5-46.18,11-68.84,17.49a244.74,244.74,0,0,1-97.59,7.36c-11.83-1.5-23.78-4-34.13-9.89s-18.61-15.1-25.65-24.8A127.82,127.82,0,0,1,18.65,237.8c27.9-14.73,78.32-24.55,135.91-24.55C242.37,213.25,313.56,236.1,313.56,264.3Z" transform="translate(-12.89 -18.26)" fill="#68e1fd"></path><path d="M313.56,264.3c0,4.69-2,9.23-5.66,13.55-15.57-.7-31.18-1.56-46.62-.59-23.76,1.5-46.18,11-68.84,17.49a244.74,244.74,0,0,1-97.59,7.36c-11.83-1.5-23.78-4-34.13-9.89s-18.61-15.1-25.65-24.8A127.82,127.82,0,0,1,18.65,237.8c27.9-14.73,78.32-24.55,135.91-24.55C242.37,213.25,313.56,236.1,313.56,264.3Z" transform="translate(-12.89 -18.26)" fill="url(#linear-gradient-5)"></path><path d="M239.11,245.63a13.41,13.41,0,0,1-.58-4.71c-3.53,2.36-7.2,4.79-11.39,5.45s-9.06-1-10.82-4.82c-1.43-3.13-.51-6.76-.48-10.21A19.29,19.29,0,0,0,214,223a6.78,6.78,0,0,0-2.41-3.06,8,8,0,0,0-2.72-.88,151.82,151.82,0,0,0-53.44-.52,1.64,1.64,0,0,0-1.28.68c-.21.46.42,1.1.75.72a89.77,89.77,0,0,1-26,.54c.74-1.81,2.61-2.87,4.41-3.65,7.93-3.45,16.75-4.21,25.4-4.53a298.77,298.77,0,0,1,91.2,10.68c6.58,1.83,13.58,3.89,19.21,7.92,2.73,2,9.19,7.18,8.64,11.19-.69,5.07-11.27,3-15,3.11C260.64,245.2,239.42,246.6,239.11,245.63Z" transform="translate(-12.89 -18.26)" fill="url(#linear-gradient-6)"></path><path d="M241.06,219.45c-1.12,5-2.29,10.07-5.22,14.22-.16-6.93-.39-14.15-3.63-20.28a10,10,0,0,1-1-2.18,7.68,7.68,0,0,1-.16-2.14,94.83,94.83,0,0,1,2.69-20.61,40.83,40.83,0,0,1,5.06-12.8q3.39,4.44,6.92,8.8l4.33-14.22,4.73,11.35c2.32-.18,3.42-3,3.55-5.3s0-4.95,1.59-6.62,4.43-1.55,6.82-1.26a2,2,0,0,1,2.07,2.38q.84,10.34,1,20.7L283,181.35c-4,3.7-8.06,7.41-12,11.18a51.61,51.61,0,0,0-6.5,7.05,37.93,37.93,0,0,0-4.25,8,64,64,0,0,0-4.31,17.54c-.3,3-.68,6.6-3.32,8.12a59.07,59.07,0,0,1-5.95-19.14c-.15-1.18-.73-6-3.25-3.9-.87.72-.93,3-1.16,4.1Z" transform="translate(-12.89 -18.26)" fill="url(#linear-gradient-7)"></path><ellipse cx="188.85" cy="257.06" rx="13.93" ry="3.35" fill="url(#linear-gradient-8)"></ellipse><ellipse cx="42.16" cy="222.2" rx="13.93" ry="3.35" fill="url(#linear-gradient-9)"></ellipse><path d="M79.24,242.28a139,139,0,0,1,14.28-3.66,92.44,92.44,0,0,1,21.09-1.1,143.82,143.82,0,0,1,21.57,2.77A49.07,49.07,0,0,1,148,243.93a21,21,0,0,1,9.16,8.08,11.25,11.25,0,0,1-.54,13,21.2,21.2,0,0,1-11.22,7.59,56.21,56.21,0,0,1-13.62,2c-17.67,1-36.13.44-52-7.48a28.14,28.14,0,0,1-7.89-5.44,13.3,13.3,0,0,1-3.38-13.52C69.94,243.86,75.51,243.37,79.24,242.28Z" transform="translate(-12.89 -18.26)" fill="url(#linear-gradient-10)"></path><path d="M235.38,131.75c.89,8.1,2.87,16.15,2.47,24.29-.46,9.65-4.24,18.92-4.55,28.57a40.45,40.45,0,0,0,6.95,23.92,106.71,106.71,0,0,1,2.56-19.74,6.13,6.13,0,0,0,1.51,2.77,61,61,0,0,0,1.06-9.53,2.42,2.42,0,0,0,.9,1.73c.86-10.61,3.11-21,4.53-31.6s2-21.4-.48-31.76c-1.14-4.76-3.16-9.68-7.27-12.33C235.1,102.94,235,128.08,235.38,131.75Z" transform="translate(-12.89 -18.26)" fill="#734a39"></path><path d="M235.38,131.75c.89,8.1,2.87,16.15,2.47,24.29-.46,9.65-4.24,18.92-4.55,28.57a40.45,40.45,0,0,0,6.95,23.92,106.71,106.71,0,0,1,2.56-19.74,6.13,6.13,0,0,0,1.51,2.77,61,61,0,0,0,1.06-9.53,2.42,2.42,0,0,0,.9,1.73c.86-10.61,3.11-21,4.53-31.6s2-21.4-.48-31.76c-1.14-4.76-3.16-9.68-7.27-12.33C235.1,102.94,235,128.08,235.38,131.75Z" transform="translate(-12.89 -18.26)" fill="url(#linear-gradient-11)"></path><path d="M228.18,150.89a14.07,14.07,0,0,0-4.89,6.59,20.92,20.92,0,0,0-.69,3.61l-.85,6.44a7.64,7.64,0,0,0,.37,4.67c1.06,2,3.64,2.59,5.84,2.27s4.23-1.38,6.37-2a24.52,24.52,0,0,0,4.49-1.36,13.91,13.91,0,0,0,3-2.33c5.42-5.06,10.83-10.46,13.71-17.28a3.52,3.52,0,0,0,.36-1.34,2.88,2.88,0,0,0-.67-1.68c-1.7-2.2-4.75-2.75-7.51-3a73.29,73.29,0,0,0-8.38-.22C235.67,145.41,231,148.65,228.18,150.89Z" transform="translate(-12.89 -18.26)" fill="#68e1fd"></path><path d="M237.65,164.14c-4.26,2.78-9.45,4.1-13.24,7.49a1.48,1.48,0,0,0-.64,1.17,1.16,1.16,0,0,0,.43.68,4.33,4.33,0,0,0,4.1.48,33.19,33.19,0,0,1,4.08-1.38c1.21-.2,2.46,0,3.67-.24,2.26-.38,4.1-2,5.81-3.51a105.91,105.91,0,0,0,9.73-9.57,2.22,2.22,0,0,0,.62-1.09,2.09,2.09,0,0,0-.26-1.11,6.77,6.77,0,0,0-1.49-2.44c-.78-.53-1.26-.16-2.23.08a4.05,4.05,0,0,0-2.87,1.7C243,159.31,240.81,162.08,237.65,164.14Z" transform="translate(-12.89 -18.26)" fill="url(#linear-gradient-12)"></path><path d="M233.09,165.14c-2.72,1.86-5.2,4.3-8.4,5.08a1,1,0,0,1-.88-.1,1,1,0,0,1-.22-.59,4.57,4.57,0,0,1,.22-2.77c.61-1.13,2-1.52,3.22-1.9,5-1.57,9.36-4.78,13.58-7.94,2.07-1.55,4.11-3.35,6.32-4.69,1.24,2.74-2.73,5.45-4.46,6.93C239.63,161.58,236.15,163,233.09,165.14Z" transform="translate(-12.89 -18.26)" fill="url(#linear-gradient-13)"></path><path d="M236.28,158.67a9.24,9.24,0,0,1-3.22,1.48c-.91.15-1.85,0-2.77.11a11.29,11.29,0,0,0-5,2.32,2.9,2.9,0,0,1-1.81.69c-.65-.06-1.25-.83-.9-1.39a60.29,60.29,0,0,0-.86,7.33c-.5-2.69.12-5.46.74-8.13a17.43,17.43,0,0,1,1.76-5.1,16.57,16.57,0,0,1,2.32-2.83,30,30,0,0,1,5-4.43,20.21,20.21,0,0,1,14.92-2.58c4.33.85-.26,5-2,6.35C241.74,154.59,239.2,156.82,236.28,158.67Z" transform="translate(-12.89 -18.26)" fill="url(#linear-gradient-14)"></path><path d="M194.15,170.4a6.57,6.57,0,0,1-2.62,1.44,6.2,6.2,0,0,1-2.84-.05,11.56,11.56,0,0,1-2.43-.81,22.37,22.37,0,0,1-6.93-5.3,43.49,43.49,0,0,1-6.14-8.08,22,22,0,0,0-1.91-3,20.34,20.34,0,0,0-3.16-2.83,46.23,46.23,0,0,1-6.81-6.75A46.94,46.94,0,0,1,152,126.27a32.21,32.21,0,0,1-.45-5.2,68.64,68.64,0,0,1,.06-10.34,17.86,17.86,0,0,1,1.37-6.18,19.64,19.64,0,0,1,4.45-5.47,14.56,14.56,0,0,1,4.67-3.3,13.77,13.77,0,0,1,4.08-.66c2-.09,4-.1,6,0a12,12,0,0,1,3.05.45A8.69,8.69,0,0,1,178,97.3c4.26,3.7,6.25,9.86,7.75,15.32l2-1.41a1.6,1.6,0,0,1,.83-.37,1.55,1.55,0,0,1,1.1.54c2.39,2.13,4.41,5.18,3.83,8.32-.42,2.39-2.24,4.31-2.83,6.64a13.24,13.24,0,0,0-.25,3.61c.16,6.47.4,13.27,3.73,18.8,1.05,1.77,2.39,3.35,3.33,5.19A13.83,13.83,0,0,1,194.15,170.4Z" transform="translate(-12.89 -18.26)" fill="#f7bc9f"></path><path d="M186.44,161.15a3.42,3.42,0,0,0,.22,1.54,13.72,13.72,0,0,1-.4,8.29,22.37,22.37,0,0,1-6.93-5.3,43.49,43.49,0,0,1-6.14-8.08,22,22,0,0,0-1.91-3,20.34,20.34,0,0,0-3.16-2.83,46.23,46.23,0,0,1-6.81-6.75,6.1,6.1,0,0,1,.47-2.54,91,91,0,0,0,24.12.15,3.35,3.35,0,0,1,2,.15,3,3,0,0,1,.79.62l3.77,3.71a7.91,7.91,0,0,1,1.37,1.63c1.17,2.08.15,4.76-1.44,6.52s-3.7,3-5.28,4.8A2.63,2.63,0,0,0,186.44,161.15Z" transform="translate(-12.89 -18.26)" fill="url(#linear-gradient-15)"></path><path d="M164.93,164.8c3.87-1.7,8.83-1.15,11.8-4.16a1,1,0,0,0,.34-.59c0-.59-.79-.77-1.37-.73a25.93,25.93,0,0,1-5.63.22,5.86,5.86,0,0,1-4.59-2.87c-.8-1.65-.43-3.6-.43-5.43s-.71-4-2.49-4.46a4,4,0,0,0-3.24.94c-3.11,2.3-4.52,6.32-4.73,10.18a14.58,14.58,0,0,0,2.27,9.15c1.12,1.6,1.9,2.34,3.51,1A20.25,20.25,0,0,1,164.93,164.8Z" transform="translate(-12.89 -18.26)" fill="#f7bc9f"></path><path d="M164.93,164.8c3.87-1.7,8.83-1.15,11.8-4.16a1,1,0,0,0,.34-.59c0-.59-.79-.77-1.37-.73a25.93,25.93,0,0,1-5.63.22,5.86,5.86,0,0,1-4.59-2.87c-.8-1.65-.43-3.6-.43-5.43s-.71-4-2.49-4.46a4,4,0,0,0-3.24.94c-3.11,2.3-4.52,6.32-4.73,10.18a14.58,14.58,0,0,0,2.27,9.15c1.12,1.6,1.9,2.34,3.51,1A20.25,20.25,0,0,1,164.93,164.8Z" transform="translate(-12.89 -18.26)" fill="url(#linear-gradient-16)"></path><path d="M192.74,141.57a6.11,6.11,0,0,1,1.19,1.81,6.72,6.72,0,0,1,1,3.37,5.28,5.28,0,0,1-.69,2.07c-1.71,3.21-4.85,5.39-8,7.21a31.18,31.18,0,0,1-4.09,2,35.19,35.19,0,0,1-4.64,1.34,38,38,0,0,1-9.29,1.27,3.15,3.15,0,0,1-1.26-.21,2.13,2.13,0,0,1-1.1-1.58,4,4,0,0,1,.24-2,11.25,11.25,0,0,1,2.18-3.57c4.06-4.77,9.93-7.6,15.84-9.67a20.73,20.73,0,0,0,3.34-1.37C189.12,141.37,190.93,139.89,192.74,141.57Z" transform="translate(-12.89 -18.26)" fill="#68e1fd"></path><path d="M192.74,141.57a6.11,6.11,0,0,1,1.19,1.81,6.72,6.72,0,0,1,1,3.37,5.28,5.28,0,0,1-.69,2.07c-1.71,3.21-4.85,5.39-8,7.21a31.18,31.18,0,0,1-4.09,2,35.19,35.19,0,0,1-4.64,1.34,38,38,0,0,1-9.29,1.27,3.15,3.15,0,0,1-1.26-.21,2.13,2.13,0,0,1-1.1-1.58,4,4,0,0,1,.24-2,11.25,11.25,0,0,1,2.18-3.57c4.06-4.77,9.93-7.6,15.84-9.67a20.73,20.73,0,0,0,3.34-1.37C189.12,141.37,190.93,139.89,192.74,141.57Z" transform="translate(-12.89 -18.26)" fill="url(#linear-gradient-17)"></path><path d="M192,138.84a5.88,5.88,0,0,1,1.2,1.82,6.75,6.75,0,0,1,.95,3.36,5.13,5.13,0,0,1-.69,2.07c-1.71,3.21-4.85,5.39-8,7.21a30,30,0,0,1-4.09,2,34,34,0,0,1-4.63,1.34,38.1,38.1,0,0,1-9.3,1.27,3.15,3.15,0,0,1-1.26-.21,2.11,2.11,0,0,1-1.1-1.57,4,4,0,0,1,.24-2,11.44,11.44,0,0,1,2.18-3.57c4.06-4.77,9.94-7.6,15.85-9.67a21,21,0,0,0,3.33-1.37C188.4,138.64,190.22,137.16,192,138.84Z" transform="translate(-12.89 -18.26)" fill="url(#linear-gradient-18)"></path><path d="M188.75,136.86a5.26,5.26,0,0,1,2.2.73c1.61,1.11,1.68,3.54.94,5.36a14.54,14.54,0,0,1-5.37,6,40.25,40.25,0,0,1-15.82,6.71,19.92,19.92,0,0,1-6.11.33,1.08,1.08,0,0,1-.61-.22,1,1,0,0,1-.25-.75,16.33,16.33,0,0,1,4.83-12.35,20.32,20.32,0,0,1,11.54-5.73A26.43,26.43,0,0,1,188.75,136.86Z" transform="translate(-12.89 -18.26)" fill="#68e1fd"></path><path d="M188.75,136.86a5.26,5.26,0,0,1,2.2.73c1.61,1.11,1.68,3.54.94,5.36a14.54,14.54,0,0,1-5.37,6,40.25,40.25,0,0,1-15.82,6.71,19.92,19.92,0,0,1-6.11.33,1.08,1.08,0,0,1-.61-.22,1,1,0,0,1-.25-.75,16.33,16.33,0,0,1,4.83-12.35,20.32,20.32,0,0,1,11.54-5.73A26.43,26.43,0,0,1,188.75,136.86Z" transform="translate(-12.89 -18.26)" fill="url(#linear-gradient-19)"></path><path d="M170.47,140.33a2.28,2.28,0,0,1,0-2.63,5.22,5.22,0,0,1,2.15-1.76,17,17,0,0,1,5.09-1.72,8.13,8.13,0,0,1,3.54.06,4,4,0,0,1,2.66,2.18" transform="translate(-12.89 -18.26)" fill="#fff" style="isolation: isolate;"></path><path d="M239.8,136.72a58.94,58.94,0,0,0,1.32,11c.83,3.32,2.35,6.63,5.07,8.7,3.48,2.65,8.5,2.77,12.45.89a18.56,18.56,0,0,0,8.63-9.52A38.72,38.72,0,0,0,270,135c.44-6.34.14-12.93-2.54-18.7s-8.16-10.56-14.51-10.93c-5.67-.34-13.73,1.28-14.34,8C237.88,120.92,239.36,129.15,239.8,136.72Z" transform="translate(-12.89 -18.26)" fill="#f7bc9f"></path><path d="M250.26,143.8a2.1,2.1,0,0,1,1.36.29,1.59,1.59,0,0,1,.47.64,3.85,3.85,0,0,1,0,3.22.38.38,0,0,1-.19.22.38.38,0,0,1-.21,0c-1.86-.79-4.3-1.69-5.83-3-1-.88,0-1,.85-1.1C247.9,143.89,249.08,143.82,250.26,143.8Z" transform="translate(-12.89 -18.26)" fill="#fff"></path><path d="M218.86,183.8c-.5-6.24,2.09-12.27,4.62-18a2.8,2.8,0,0,1,.38-.7,3.48,3.48,0,0,1,1-.8c1.73-1.1,3.38-2.32,5-3.54,2.33-1.73,4.8-3.66,5.6-6.45a3.52,3.52,0,0,0-2.69.74,64.72,64.72,0,0,1-11.25,5.26,9.54,9.54,0,0,1,2.67-4.13,3,3,0,0,1,.9-.6,4,4,0,0,1,1.42-.18,17.52,17.52,0,0,0,6.73-1.48c.59-.26,1.27-.83,1-1.41-.18-.4-.7-.48-1.13-.52l-3.58-.28,3.41-2.55c.46-.34.94-1,.51-1.4a38.08,38.08,0,0,0-7.08-.21,9,9,0,0,1-2.54,0c-.74-.15-1.42-.51-2.15-.68-2.25-.54-4.53.64-6.43,1.94a40.36,40.36,0,0,0-5.18,4.21,9.16,9.16,0,0,0-2.1,2.66,10.3,10.3,0,0,0-.61,4.49l.18,13.8c.06,5,.17,10.26,2.35,14.8,5.45,11.32,3.62,23.79,6.67,36,1.38,5.52,3,11.16,6.49,15.63a6.26,6.26,0,0,0,2.52,2.14,5.31,5.31,0,0,0,4-.38c3.65-1.68,5.88-5.64,6.32-9.63s-.64-8-2.16-11.72c-2.53-6.17-6.24-11.77-9.35-17.67A50.44,50.44,0,0,1,218.86,183.8Z" transform="translate(-12.89 -18.26)" fill="#f7bc9f"></path><path d="M264.92,184.8a152.75,152.75,0,0,0-3.21-30.53,7,7,0,0,0-1-2.76,7.1,7.1,0,0,0-2.2-1.7c-3.35-1.95-6.77-3.93-10.55-4.76-2.25-.5-4.58-.58-6.84-1.05a5.17,5.17,0,0,0-2.17-.16,4.48,4.48,0,0,0-2.38,2.13c1.07.82,2,1.87,3.06,2.7a16,16,0,0,0-5-.47c-.28.86.61,1.62,1.4,2.07a35.39,35.39,0,0,0,4,1.94,16.53,16.53,0,0,1,3.91,1.92c1.89,1.45,2.85,3.76,3.73,6l4.73,11.78a12.66,12.66,0,0,1,.87,2.74,15.07,15.07,0,0,1-.19,4.44,54,54,0,0,0-.4,9c.59,14.89-7.76,28.8-5.4,43.51.55,3.45,1.49,7,3.72,9.66a4.34,4.34,0,0,0,2.65,1.74,4,4,0,0,0,2.16-.45c3.3-1.54,5.22-5,6.69-8.33C269.64,218.05,265,202.42,264.92,184.8Z" transform="translate(-12.89 -18.26)" fill="#f7bc9f"></path><path d="M241.06,96.34A8.09,8.09,0,0,1,242.55,95a16.59,16.59,0,0,1,7-2.33c2.33-.35,4.67-.56,7-.7a23.86,23.86,0,0,1,14.23,2.85c5.53,2.61,11.33,6,14.59,11.28a33,33,0,0,1,4.84,19.7c-.18,2.3-.6,4.65,0,6.88.75,3,3.2,5.51,3.21,8.58,0,1.7-.74,3.31-.93,5-.51,4.6,3.14,8.48,5.05,12.7a17.78,17.78,0,0,1,1.22,10.81c-.86-1.91-3.71-2-5.44-.85s-2.65,3.2-3.73,5c-1.66,2.76-4.21,4.78-5.83,7.49-1.74,2.89-3.08,5.85-5.19,8.58a60.07,60.07,0,0,1-7.15,7.72c-1.26,1.14-8.12,5.1-8.36,6.4.89-4.89,1.55-9.8,2.35-14.71.65-3.93,2.47-7.56,3.07-11.46.5-3.2-.5-6.56.38-9.69.75-2.64,2.81-5,2.44-7.76a26.82,26.82,0,0,0-1.22-3.64c-1.11-3.85,1.22-7.75,2.12-11.66a4.65,4.65,0,0,0,.09-2.16,6.36,6.36,0,0,0-2-2.69c-4.3-4.23-5.35-10.2-8.3-15.22-.43-.74-4.8-6-4.68-6.29l-.78,2c-2.13-2.46-4.47-5-7.59-5.92a21.49,21.49,0,0,0-5.95-.49,48.34,48.34,0,0,1-5.25-.31,5.41,5.41,0,0,1-2.25-.59c-1.59-.93-1.94-3.13-1.53-4.93A8.52,8.52,0,0,1,238.5,103a1.63,1.63,0,0,0,.81-.61,1.82,1.82,0,0,0,0-1A6.28,6.28,0,0,1,241.06,96.34Z" transform="translate(-12.89 -18.26)" fill="#734a39"></path><path d="M151.64,149.28c1.15-1.44,2.84-2.33,4.33-3.41,1.86-1.35,3.49-3.08,5.62-4a13.89,13.89,0,0,1,4.92-.81,53.13,53.13,0,0,1,8.46.43,1.92,1.92,0,0,1-2.06,2l1,1.48c-2.54,1.88-6.15.51-9.24,1.12a7.34,7.34,0,0,0-5.49,5q6.63-.08,13.26,0c.18,1.25-1.35,2-2.61,2.19-2.17.34-4.4.27-6.53.83s-4.23,1.93-4.81,4c-.75,2.74,1.25,5.41,1.83,8.18a14.27,14.27,0,0,1-.24,5.63,86.27,86.27,0,0,1-3.21,11.1q-4.81,14-10.56,27.64c-.8,1.9-1.71,3.91-3.45,5a8.15,8.15,0,0,1-5.11.93,10.13,10.13,0,0,1-6.21-2.36c-2.34-2.2-2.81-5.85-2.06-9s2.51-5.9,4.11-8.69c2.66-4.61,5-9.43,7.75-14,2.34-3.8,6.32-7.47,7.47-11.87,1.06-4.09.52-9,.75-13.19C149.72,154.81,149.78,151.62,151.64,149.28Z" transform="translate(-12.89 -18.26)" fill="#f7bc9f"></path><path d="M142.82,99.12a9.43,9.43,0,0,0-1.85,7.4,24.85,24.85,0,0,0,2.58,7.38c1.86,3.84,4.08,7.78,7.77,9.9,2.06-4.08.15-9.14,1.47-13.52a1.52,1.52,0,0,1,.46-.82,1.71,1.71,0,0,1,.89-.26c4.89-.4,10.34.18,14.16-2.9A21.57,21.57,0,0,0,174,108a7.15,7.15,0,0,0,5.59-1.59,12.88,12.88,0,0,1,7.57,12.26,71.27,71.27,0,0,0,.48-8.89l2,1.24a68.86,68.86,0,0,0-1.33-13.67,15.81,15.81,0,0,0-2.16-6c-2-2.94-5.6-4.41-9.12-5C168,85,159,88.54,150.51,92.06c-2.09.87-4.31,1.85-5.53,3.76-1.41,2.19-1.14,5-.82,7.61" transform="translate(-12.89 -18.26)" fill="#f05a20"></path><path d="M188.78,115.38c0-.23.1-.53.33-.52a.46.46,0,0,1,.28.15,7.17,7.17,0,0,1,2.56,3.52,3.68,3.68,0,0,1-.51,2.76c-.4.61-1.42,1.64-2.23,1.62s-1.22-1.23-1-2,1.13-1.3,1.2-2.17C189.55,117.69,188.73,116.56,188.78,115.38Z" transform="translate(-12.89 -18.26)" fill="url(#linear-gradient-20)"></path><path d="M168.7,125.36a24.88,24.88,0,0,0,.72,5.71,1,1,0,0,0,1.17.89,11.72,11.72,0,0,0,2-.11,2.3,2.3,0,0,0,1.77-.88c-.9-.9-2.4-.94-3.32-1.82a5.73,5.73,0,0,1-1.18-2.3,15.84,15.84,0,0,0-1.25-2.71l.26,2.66" transform="translate(-12.89 -18.26)" fill="url(#linear-gradient-21)"></path><path d="M81,236a138.57,138.57,0,0,1,14.29-3.66,92.38,92.38,0,0,1,21.08-1.1A143.66,143.66,0,0,1,137.9,234a49.07,49.07,0,0,1,11.82,3.64,21,21,0,0,1,9.17,8.08,11.27,11.27,0,0,1-.55,13c-2.64,3.76-6.83,6.23-11.22,7.59a56.12,56.12,0,0,1-13.61,2c-17.68,1-36.13.44-52-7.48a28,28,0,0,1-7.88-5.44,13.25,13.25,0,0,1-3.38-13.52C71.67,237.54,77.23,237.06,81,236Z" transform="translate(-12.89 -18.26)" fill="#fff"></path><path d="M92.93,240.8a90.12,90.12,0,0,1,9.28-2.37,59.91,59.91,0,0,1,13.71-.72,94.5,94.5,0,0,1,14,1.8,32,32,0,0,1,7.68,2.37,13.57,13.57,0,0,1,6,5.25,8,8,0,0,1,1.15,4.47,7.91,7.91,0,0,1-1.51,4,13.75,13.75,0,0,1-7.29,4.93,36.51,36.51,0,0,1-8.85,1.27c-11.49.63-23.48.29-33.78-4.86a18.35,18.35,0,0,1-5.12-3.53,8.65,8.65,0,0,1-2.2-8.8C86.88,241.83,90.5,241.52,92.93,240.8Z" transform="translate(-12.89 -18.26)" fill="#68e1fd" opacity="0.18" style="isolation: isolate;"></path><ellipse cx="185.33" cy="255.53" rx="9.14" ry="2.78" fill="#fff"></ellipse><polygon points="172.46 228.77 176.2 255.53 194.47 255.53 196.92 228.77 172.46 228.77" fill="#fff"></polygon><path d="M187.8,256.12,190,273s8.24,5,15.8,0l1.52-16.9s-2.19-3.4-10.62-3S187.8,256.12,187.8,256.12Z" transform="translate(-12.89 -18.26)" fill="#68e1fd"></path><ellipse cx="184.69" cy="228.77" rx="12.23" ry="3.72" fill="#fff"></ellipse><ellipse cx="184.69" cy="237.86" rx="9.78" ry="2.97" fill="url(#linear-gradient-22)"></ellipse><ellipse cx="38.65" cy="220.75" rx="9.14" ry="2.78" fill="#fff"></ellipse><polygon points="25.78 193.99 29.51 220.75 47.78 220.75 50.24 193.99 25.78 193.99" fill="#fff"></polygon><path d="M41.12,221.35l2.24,16.89s8.23,5,15.8,0l1.51-16.89s-2.18-3.41-10.61-3S41.12,221.35,41.12,221.35Z" transform="translate(-12.89 -18.26)" fill="#68e1fd"></path><ellipse cx="38.01" cy="193.99" rx="12.23" ry="3.72" fill="#fff"></ellipse><ellipse cx="38.01" cy="203.09" rx="9.78" ry="2.97" fill="url(#linear-gradient-23)"></ellipse><path d="M270.14,134.56a3.56,3.56,0,0,1,.95-.69,3.9,3.9,0,0,1,1.86-.17,1.53,1.53,0,0,1,.74.18,1.4,1.4,0,0,1,.4.55,8.65,8.65,0,0,1,0,6.63,6.21,6.21,0,0,1-2.12,3,3.25,3.25,0,0,1-3.52.24c-1.46-.95-2.14-3.77-1.85-5.42S268.94,135.65,270.14,134.56Z" transform="translate(-12.89 -18.26)" fill="#f7bc9f"></path><path d="M255.84,242.51S283.4,236.45,288,228.4s11.15-32.46,11.15-32.46L293.74,177l-6.32,4.31-21.23,24.41S269.37,234.5,255.84,242.51Z" transform="translate(-12.89 -18.26)" fill="#68e1fd"></path><path d="M300.16,200.34c-4.57,2.22-7.73,6.55-10.25,10.95s-4.64,9.12-8,13c-1.94,2.23-4.25,4.11-6.2,6.32-2.47,2.81-4.59,6.31-8.14,7.48-2.88,1-6.43.24-8.68,2.28a52.3,52.3,0,0,0,20.53-4.57,6.39,6.39,0,0,1,3-.82,6,6,0,0,1,2.25.81c2.67,1.39,8.36,6.21,10.48,2.65,1.7-2.86,1.52-9.3,2.32-12.68C298,223.74,303.06,200.34,300.16,200.34Z" transform="translate(-12.89 -18.26)" fill="url(#linear-gradient-24)"></path></svg>